<svg width="436" height="158" viewBox="0 0 436 158" fill="none" xmlns="http://www.w3.org/2000/svg">
<path d="M40.9531 111.464C41.1041 111.547 41.5052 111.547 42.151 111.458C42.8021 111.375 43.2656 111.052 43.5364 110.495C43.8125 109.937 43.8698 109.073 43.7187 107.911L43.1979 104.016C43.0364 102.786 42.7708 101.922 42.4114 101.432C42.0521 100.943 41.5364 100.74 40.8698 100.828C40.2031 100.917 39.7604 101.047 39.5364 101.214C39.5937 101.38 39.651 101.667 39.7031 102.078L40.9531 111.464ZM45.3125 134.474L46.3594 142.318C45.0208 143.781 43.0364 145.099 40.4114 146.266C37.7812 147.432 34.9791 148.214 32.0052 148.609C27.7656 149.172 24.1875 148.812 21.2708 147.531C17.9427 146.057 16.0417 143.547 15.5677 139.99L9.09375 91.2708C8.95312 90.1771 9.54687 88.9844 10.8906 87.6927C12.2344 86.401 14.1615 85.1354 16.6771 83.8958C22.0625 81.2344 28.3802 79.4219 35.625 78.4583C45.6458 77.125 53.9583 78.5625 60.5729 82.7604C67.1823 86.9636 71.0469 93.2761 72.1666 101.703C73.2864 110.13 71.4739 117.047 66.7291 122.443C62.1614 127.573 55.2916 130.745 46.1302 131.964C44.0416 132.24 41.7812 132.292 39.3385 132.109C36.8958 131.927 35.2396 131.703 34.3698 131.437C34.1302 131.75 34.0469 132.141 34.1094 132.62C34.3385 134.365 38.0781 134.984 45.3125 134.474Z" stroke="#F0F0E1" stroke-width="16.424"/>
<path d="M40.9668 111.484C41.1022 111.542 41.4928 111.526 42.1334 111.443C42.7845 111.359 43.248 111.042 43.5293 110.484C43.8209 109.932 43.8886 109.068 43.7376 107.901L43.2168 104.005C43.0501 102.771 42.7793 101.911 42.4043 101.422C42.0397 100.937 41.5293 100.745 40.8626 100.838C40.2063 100.922 39.7636 101.047 39.5293 101.213C39.597 101.38 39.6595 101.672 39.7168 102.088L40.9668 111.484ZM45.3209 134.463L46.3626 142.297C45.0397 143.786 43.0605 145.109 40.4251 146.276C37.7845 147.443 34.9772 148.229 32.0084 148.63C27.7688 149.187 24.1855 148.818 21.2584 147.526C17.9251 146.068 16.0188 143.562 15.5501 140.005L9.07092 91.276C8.9355 90.1822 9.53967 88.9843 10.8834 87.6926C12.2324 86.401 14.1647 85.1301 16.6751 83.8801C22.0605 81.2291 28.3834 79.4218 35.6334 78.4635C45.6438 77.1301 53.9563 78.5676 60.5709 82.776C67.1959 86.9739 71.0605 93.2864 72.1751 101.713C73.3001 110.146 71.4876 117.057 66.7376 122.443C62.1543 127.583 55.2793 130.755 46.1126 131.963C44.0293 132.245 41.7688 132.292 39.3418 132.109C36.9095 131.932 35.248 131.713 34.3626 131.463C34.123 131.745 34.0345 132.125 34.0918 132.609C34.3261 134.359 38.0709 134.979 45.3209 134.463Z" fill="#FF1919"/>
<path d="M78.25 107.031C78.4271 106.833 78.6094 106.656 78.8125 106.5C79.6042 105.865 80.5833 105.521 81.6302 105.365C82.2135 105.276 82.8177 105.245 83.4219 105.25C83.901 105.255 84.3854 105.281 84.849 105.323C89.599 105.755 94.2552 107.104 98.526 109.229C101.396 110.661 107.786 113.656 108.542 117.234C108.615 117.568 108.635 117.906 108.604 118.234C108.599 118.323 108.594 118.406 108.578 118.49C108.552 118.667 108.516 118.849 108.464 119.026C107.719 121.667 104.417 124.021 102.453 125.172C101.88 125.505 101.292 125.813 100.682 126.078C98.4844 127.063 96.0781 127.604 93.6719 127.604C92.6927 127.609 91.7083 127.521 90.7448 127.333C83.6302 125.974 77.776 119.552 77.0417 112.302C76.8542 110.453 77.0312 108.422 78.25 107.031Z" fill="#F0F0E1"/>
<mask id="mask0_1_588" style="mask-type:luminance" maskUnits="userSpaceOnUse" x="93" y="118" width="34" height="24">
<path d="M93.6667 118.458H126.953V141.109H93.6667V118.458Z" fill="white"/>
</mask>
<g mask="url(#mask0_1_588)">
<path d="M93.6719 127.604C96.0781 127.604 98.4844 127.063 100.682 126.078C101.292 125.813 101.88 125.505 102.453 125.172C104.417 124.021 107.719 121.667 108.464 119.026C108.516 118.849 108.552 118.667 108.578 118.49C112.641 118.568 116.703 118.651 120.766 118.729C122.01 118.75 123.313 118.786 124.406 119.391C125.891 120.203 126.615 121.823 126.833 123.563C126.943 124.401 126.932 125.26 126.839 126.073C125.891 134.328 118.13 141.203 109.88 141.109C104.818 141.047 100.005 138.37 96.875 134.422C96.5417 134.005 96.2292 133.573 95.9375 133.125C94.75 131.323 93.9427 129.422 93.6719 127.604Z" fill="#F0F0E1"/>
</g>
<path d="M93.9167 128.745C94.6667 128.854 95.4219 128.906 96.1823 128.906C98.5885 128.906 100.99 128.365 103.193 127.38C103.797 127.109 104.391 126.807 104.958 126.474C106.927 125.323 110.224 122.969 110.969 120.323C111.021 120.146 111.063 119.969 111.089 119.792C111.099 119.703 111.109 119.62 111.115 119.536C111.141 119.208 111.12 118.875 111.052 118.536C110.229 118.521 109.401 118.505 108.578 118.49C108.552 118.667 108.516 118.849 108.464 119.026C107.719 121.667 104.417 124.021 102.453 125.172C101.88 125.505 101.292 125.813 100.682 126.078C98.4844 127.063 96.0781 127.604 93.6719 127.604C93.7292 127.979 93.8125 128.365 93.9167 128.745Z" fill="#E4DCB5"/>
<path d="M114.917 88.026C115.708 87.4219 116.578 86.9167 117.5 86.5365C122.932 84.2917 129.562 86.1198 133.656 90.3594C137.75 94.599 139.406 100.87 138.724 106.745C137.891 113.911 133.417 120.781 126.833 123.563C126.615 121.823 125.891 120.203 124.406 119.391C123.312 118.786 122.01 118.75 120.766 118.729C116.703 118.651 112.641 118.568 108.578 118.49C108.594 118.406 108.599 118.323 108.604 118.234C108.87 118.125 109.339 118.047 109.984 117.734C112.224 116.646 114.26 115.578 114.688 112.797C115.344 108.578 111.646 105.047 110.354 100.984C109.75 99.0885 109.745 97.0833 110.219 95.1771C110.906 92.3802 112.604 89.7865 114.917 88.026Z" fill="#F0F0E1"/>
<path d="M109.984 117.734C109.708 117.865 109.474 117.953 109.266 118.021C109.172 118.182 109.073 118.339 108.969 118.495C112.901 118.573 116.833 118.651 120.766 118.729C122.01 118.75 123.312 118.786 124.406 119.391C125.891 120.203 126.615 121.823 126.833 123.563C127.313 123.365 127.771 123.135 128.224 122.896C128.234 122.385 128.219 121.875 128.151 121.37C127.932 119.63 127.208 118.005 125.724 117.193C124.63 116.594 123.328 116.552 122.083 116.531C118.875 116.469 115.667 116.406 112.458 116.344C111.724 116.875 110.87 117.302 109.984 117.734Z" fill="#C9B686"/>
<path d="M115.958 117.281C116.26 115.344 115.635 113.552 114.755 111.786C114.755 112.12 114.74 112.458 114.688 112.797C114.26 115.578 112.224 116.646 109.984 117.734C109.339 118.047 108.87 118.125 108.604 118.234C108.599 118.323 108.594 118.406 108.578 118.49C110.911 118.536 113.245 118.578 115.578 118.625C115.75 118.229 115.88 117.781 115.958 117.281Z" fill="#C9B686"/>
<path d="M110.219 95.1771C109.745 97.0833 109.75 99.0885 110.354 100.984C110.568 101.661 110.854 102.323 111.172 102.979C111.109 101.865 111.219 100.745 111.484 99.6615C112.172 96.8646 113.87 94.2708 116.187 92.5104C116.979 91.9063 117.844 91.401 118.766 91.0208C124.198 88.776 130.833 90.6042 134.927 94.8438C136.495 96.4688 137.703 98.3958 138.562 100.484C137.927 96.6979 136.302 93.1042 133.656 90.3594C129.562 86.1198 122.932 84.2917 117.5 86.5365C116.578 86.9167 115.708 87.4219 114.917 88.026C112.604 89.7865 110.906 92.3802 110.219 95.1771Z" fill="#E4DCB5"/>
<mask id="mask1_1_588" style="mask-type:luminance" maskUnits="userSpaceOnUse" x="63" y="100" width="35" height="40">
<path d="M63.4792 100H97.6667V140H63.4792V100Z" fill="white"/>
</mask>
<g mask="url(#mask1_1_588)">
<path d="M71.6614 101.641C72.6302 101.047 73.7396 100.573 74.8542 100.453C75.7708 102.714 77.1146 104.786 78.8125 106.5C78.6094 106.656 78.4271 106.833 78.25 107.031C77.0312 108.422 76.8542 110.453 77.0417 112.302C77.776 119.552 83.6302 125.974 90.7448 127.333C91.7083 127.521 92.6927 127.609 93.6719 127.604C93.9427 129.422 94.75 131.323 95.9375 133.125C96.2292 133.573 96.5417 134.005 96.875 134.422C94.0625 137.172 90.0469 138.995 86.1094 139.292C80.9115 139.688 75.6927 138.052 71.2031 135.37C69.1875 134.161 67.25 132.698 65.9896 130.708C64.5521 128.443 64.1094 125.693 63.8802 123.016C63.5469 119.026 63.6302 114.948 64.7864 111.12C65.9479 107.292 68.2656 103.724 71.6614 101.641Z" fill="#F0F0E1"/>
</g>
<path d="M72.7604 101.063C73.6771 103.214 74.9687 105.193 76.5989 106.828C77.0989 106.427 77.6823 106.151 78.3021 105.958C76.8437 104.359 75.6771 102.479 74.8542 100.453C74.1406 100.531 73.4323 100.76 72.7604 101.063Z" fill="#E4DCB5"/>
<path d="M93.6719 127.604C92.6927 127.609 91.7083 127.521 90.7448 127.333C90.0781 127.208 89.4323 127.021 88.7917 126.812C89.1198 128.5 89.8854 130.255 90.9792 131.922C91.2708 132.365 91.5833 132.797 91.9167 133.219C92.7656 134.286 93.7448 135.26 94.8125 136.12C95.5521 135.604 96.2448 135.036 96.875 134.422C96.5417 134.005 96.2292 133.573 95.9375 133.125C94.75 131.323 93.9427 129.422 93.6719 127.604Z" fill="#C9B686"/>
<path d="M83.6354 94.6198C84.7917 92.8854 86.9375 91.8802 89 92.1094C91.0625 92.3333 92.9427 93.7865 93.7031 95.7292C94.4687 92.7813 97.3802 90.6979 100.396 90.4063C103.146 90.1458 105.865 91.1927 108.052 92.8229C108.734 93.3333 109.453 94.2761 110.219 95.1771C109.745 97.0833 109.75 99.0886 110.354 100.984C111.646 105.047 115.344 108.578 114.687 112.797C114.26 115.578 112.224 116.646 109.984 117.734C109.339 118.047 108.87 118.125 108.604 118.234C108.635 117.906 108.615 117.568 108.542 117.234C107.786 113.656 101.396 110.661 98.526 109.229C94.2552 107.104 89.5989 105.755 84.8489 105.323C84.3854 105.281 83.901 105.255 83.4219 105.25C82.8802 101.479 81.6042 97.6563 83.6354 94.6198Z" fill="#D28500"/>
<path d="M109.885 98.1458C109.865 97.151 109.979 96.151 110.219 95.1771C109.766 94.6458 109.333 94.099 108.911 93.6354C108.901 94.7083 109.047 95.776 109.375 96.8177C109.521 97.2656 109.693 97.7083 109.885 98.1458ZM83.4219 105.25C83.901 105.255 84.3854 105.281 84.849 105.323C89.599 105.755 94.2552 107.104 98.526 109.229C101.396 110.661 107.786 113.656 108.542 117.234C108.615 117.568 108.635 117.906 108.604 118.234C108.87 118.125 109.339 118.047 109.984 117.734C112.224 116.646 114.26 115.578 114.687 112.797C114.953 111.083 114.495 109.484 113.781 107.917C113.771 108.151 113.75 108.391 113.714 108.635C113.281 111.417 111.245 112.479 109.005 113.568C108.359 113.885 107.891 113.958 107.63 114.073C107.656 113.74 107.635 113.406 107.562 113.068C106.807 109.495 100.422 106.495 97.5469 105.068C93.276 102.943 88.6198 101.594 83.875 101.161C83.5 101.125 83.1094 101.109 82.724 101.099C82.9219 102.464 83.2187 103.859 83.4219 105.25Z" fill="#BA5B00"/>
<path d="M90.8958 74.224C98.8854 73.1094 107.229 76.8229 112.245 83.1771C112.901 84 114.016 85.8906 114.917 88.0261C112.604 89.7865 110.906 92.3802 110.219 95.1771C109.453 94.2761 108.734 93.3334 108.052 92.8229C105.865 91.1927 103.146 90.1459 100.396 90.4063C97.3802 90.6979 94.4687 92.7813 93.7031 95.7292C92.9427 93.7865 91.0625 92.3334 89 92.1094C86.9375 91.8802 84.7917 92.8854 83.6354 94.6198C81.6042 97.6563 82.8802 101.479 83.4219 105.25C82.8177 105.245 82.2135 105.276 81.6302 105.365C80.5833 105.521 79.6042 105.865 78.8125 106.5C77.1146 104.786 75.7708 102.714 74.8542 100.453C73.4375 96.9844 73.0312 93.0886 73.875 89.4323C75.7031 81.5261 82.9115 75.3438 90.8958 74.224Z" fill="#F0F0E1"/>
<path d="M73.6146 111.401C74.3958 119.135 80.6406 125.984 88.2292 127.437C89.2604 127.635 90.3073 127.729 91.3542 127.724C92.0417 127.724 92.7292 127.682 93.4115 127.599C92.5156 127.589 91.625 127.505 90.7448 127.333C83.6302 125.974 77.776 119.552 77.0417 112.302C76.8542 110.453 77.0312 108.422 78.25 107.031C78.4271 106.833 78.6094 106.656 78.8125 106.5C79.6042 105.865 80.5833 105.521 81.6302 105.365C82.2135 105.276 82.8177 105.245 83.4219 105.25C83.901 105.255 84.3854 105.281 84.849 105.323C89.599 105.755 94.2552 107.104 98.526 109.229C99.25 109.594 100.198 110.052 101.224 110.599C99.474 109.562 97.7187 108.714 96.526 108.125C91.974 105.854 87.0052 104.417 81.9427 103.958C81.4427 103.911 80.9323 103.88 80.4167 103.875C79.776 103.87 79.1302 103.901 78.5052 104C77.3906 104.167 76.3437 104.531 75.5 105.208C75.2865 105.375 75.0885 105.568 74.901 105.776C73.599 107.26 73.4167 109.427 73.6146 111.401Z" fill="#E4DCB5"/>
<path d="M78.25 107.031C78.4271 106.833 78.6094 106.656 78.8125 106.5C79.6042 105.865 80.5833 105.521 81.6302 105.365C82.2135 105.276 82.8177 105.245 83.4219 105.25C83.901 105.255 84.3854 105.281 84.849 105.323C89.599 105.755 94.2552 107.104 98.526 109.229C101.396 110.661 107.786 113.656 108.542 117.234C108.615 117.568 108.635 117.906 108.604 118.234C108.599 118.323 108.594 118.406 108.578 118.49C108.552 118.667 108.516 118.849 108.464 119.026C107.719 121.667 104.417 124.021 102.453 125.172C101.88 125.505 101.292 125.813 100.682 126.078C98.4844 127.063 96.0781 127.604 93.6719 127.604C92.6927 127.609 91.7083 127.521 90.7448 127.333C83.6302 125.974 77.776 119.552 77.0417 112.302C76.8542 110.453 77.0312 108.422 78.25 107.031Z" fill="#F0F0E1"/>
<mask id="mask2_1_588" style="mask-type:luminance" maskUnits="userSpaceOnUse" x="45" y="12" width="86" height="66">
<path d="M45.6667 12H131V77.3333H45.6667V12Z" fill="white"/>
</mask>
<g mask="url(#mask2_1_588)">
<mask id="mask3_1_588" style="mask-type:luminance" maskUnits="userSpaceOnUse" x="40" y="-5" width="100" height="100">
<path d="M40.4531 43.224L88.5364 -4.85938L139.448 46.0521L91.3646 94.1354L40.4531 43.224Z" fill="white"/>
</mask>
<g mask="url(#mask3_1_588)">
<mask id="mask4_1_588" style="mask-type:luminance" maskUnits="userSpaceOnUse" x="40" y="-5" width="100" height="100">
<path d="M40.4531 43.224L88.5364 -4.85938L139.448 46.0521L91.3646 94.1354L40.4531 43.224Z" fill="white"/>
</mask>
<g mask="url(#mask4_1_588)">
<path d="M72.026 74.6875C70.5625 73.1927 69.1198 71.2135 67.6614 69.6094C66.0573 67.8281 64.4739 66.5313 62.8698 65.1042C60.2864 62.8073 57.6667 60.224 55.0469 57.3542C52.7864 54.8438 50.4531 52.0469 48.401 48.2136C47.0833 45.7188 45.8385 42.4792 45.8177 40.1458C45.8021 37.9896 46.8333 37.3125 47.8854 37.1146C49.4531 36.8333 51.3437 37.2604 53.4062 39.3229C54.6562 40.5729 55.901 42.3542 57.1302 44.0104C61.7083 50.0833 66.3437 54.5729 70.9219 60.401C72.8646 62.875 74.9479 65.8542 76.2656 69.5573C79.3125 78.0573 75.125 77.8958 72.026 74.6875ZM81.3229 69.8802C84.3542 72.125 84.5312 67.0625 83.3542 64.25C82.4635 62.1458 81.5052 60.1146 80.4896 58.1042C78.9219 54.9323 77.2083 51.6875 74.875 49.7448C73.3594 48.4844 71.3854 47.8958 70.2083 49.25C70.0104 49.4792 69.8333 49.8021 69.7969 50.1927C69.7604 50.6563 69.9427 51.1563 70.0989 51.599C71.3489 54.7708 73.0208 57.6198 74.6823 60.4167C76.5156 63.5 78.7604 67.9896 81.3229 69.8802ZM85.0469 51.3333C86.026 54.3802 90.5885 71.4479 94.276 63.625C95.9323 60.151 95.9167 55.6823 95.1302 51.5469C94.3489 47.4115 92.9062 43.4427 91.8021 39.3802C90.6614 35.2448 89.9114 31.0052 89.4479 26.7656C89.1094 23.5417 88.9323 20.2292 87.6823 17.2708C86.4375 14.3125 83.6927 11.8542 81.1667 12.5313C79.1354 13.099 77.8489 15.526 77.5989 18.0521C77.3542 20.5833 77.8854 23.2188 78.4375 25.7656C80.3281 34.3542 82.3385 42.9583 85.0469 51.3333ZM100.885 60.3281C100.812 61.8594 100.443 64.125 101.276 65.4948C102.224 67.0833 104.484 67.2083 105.948 65.7083C106.656 64.9948 107.016 64.1042 107.266 63.2135C107.87 61.151 108.031 59.0313 107.745 57C107.479 55.125 106.854 53.1875 107.708 51.3698C108.099 50.5469 108.797 49.7448 108.833 48.8906C108.849 47.875 107.974 47.0729 107.068 46.4531C106.354 45.9531 105.25 45.4896 104.448 46.0052C104.021 46.2917 103.859 46.7708 103.719 47.1979C102.417 51.5313 101.099 55.9115 100.885 60.3281ZM110.615 73.5104C113.375 72.4948 114.818 69.5573 116.047 66.8698C119.771 58.724 123.937 50.7813 128.536 43.0833C129.708 41.0885 130.922 38.5261 129.568 36.6354C128.391 34.9948 125.776 35.0521 124.083 36.2083C122.427 37.3646 121.479 39.2708 120.609 41.1094C118.542 45.4531 116.437 49.8021 114.37 54.1458C113.286 56.4479 112.161 58.7813 111.734 61.276C111.359 63.4635 111.484 65.8333 110.328 67.7031C109.74 68.651 108.865 69.4167 108.406 70.4115C107.943 71.4115 108.12 72.8698 109.135 73.2813C109.542 73.4427 109.974 73.4063 110.401 73.3333C112.094 72.9948 113.573 71.7292 114.156 70.0729" fill="#D28500"/>
</g>
</g>
</g>
<mask id="mask5_1_588" style="mask-type:luminance" maskUnits="userSpaceOnUse" x="23" y="18" width="19" height="13">
<path d="M23 18.6667H41.6667V30.6667H23V18.6667Z" fill="white"/>
</mask>
<g mask="url(#mask5_1_588)">
<mask id="mask6_1_588" style="mask-type:luminance" maskUnits="userSpaceOnUse" x="9" y="-7" width="53" height="49">
<path d="M9.71355 6.61458L49.4948 -6.85938L61.3646 28.1823L21.5833 41.6563L9.71355 6.61458Z" fill="white"/>
</mask>
<g mask="url(#mask6_1_588)">
<mask id="mask7_1_588" style="mask-type:luminance" maskUnits="userSpaceOnUse" x="9" y="-7" width="53" height="49">
<path d="M9.71355 6.61458L49.4948 -6.85938L61.3646 28.1823L21.5833 41.6563L9.71355 6.61458Z" fill="white"/>
</mask>
<g mask="url(#mask7_1_588)">
<mask id="mask8_1_588" style="mask-type:luminance" maskUnits="userSpaceOnUse" x="9" y="-7" width="53" height="49">
<path d="M9.71355 6.61458L49.4948 -6.85938L61.3646 28.1823L21.5833 41.6563L9.71355 6.61458Z" fill="white"/>
</mask>
<g mask="url(#mask8_1_588)">
<path d="M23.3646 21.474C23.4219 21.3438 23.4896 21.2188 23.5677 21.1042C23.8698 20.6354 24.3229 20.2865 24.8438 20.0156C25.1354 19.8698 25.4479 19.7448 25.7604 19.6406C26.0156 19.5573 26.2708 19.4896 26.5261 19.4271C29.0833 18.8073 31.7552 18.6771 34.3646 19.0156C36.1146 19.2448 39.9844 19.6563 41.0052 21.3646C41.099 21.526 41.1667 21.6927 41.2136 21.8698C41.224 21.9115 41.2344 21.9583 41.2448 22.0052C41.2604 22.1042 41.2708 22.1979 41.2761 22.3021C41.3438 23.7969 40.0313 25.5938 39.2031 26.5365C38.9636 26.8073 38.7031 27.0677 38.4375 27.3177C37.4531 28.2135 36.2917 28.9167 35.0313 29.3438C34.5156 29.5208 33.9896 29.651 33.4479 29.724C29.4896 30.2865 25.3021 28.0104 23.6563 24.4063C23.2344 23.4844 22.9688 22.4115 23.3646 21.474Z" fill="#F0F0E1"/>
</g>
</g>
</g>
</g>
<mask id="mask9_1_588" style="mask-type:luminance" maskUnits="userSpaceOnUse" x="35" y="18" width="18" height="17">
<path d="M35 18.6667H52.3333V34.6667H35V18.6667Z" fill="white"/>
</mask>
<g mask="url(#mask9_1_588)">
<mask id="mask10_1_588" style="mask-type:luminance" maskUnits="userSpaceOnUse" x="9" y="-7" width="53" height="49">
<path d="M9.71353 6.61458L49.4948 -6.85938L61.3646 28.1823L21.5833 41.6563L9.71353 6.61458Z" fill="white"/>
</mask>
<g mask="url(#mask10_1_588)">
<mask id="mask11_1_588" style="mask-type:luminance" maskUnits="userSpaceOnUse" x="9" y="-7" width="53" height="49">
<path d="M9.71353 6.61458L49.4948 -6.85938L61.3646 28.1823L21.5833 41.6563L9.71353 6.61458Z" fill="white"/>
</mask>
<g mask="url(#mask11_1_588)">
<mask id="mask12_1_588" style="mask-type:luminance" maskUnits="userSpaceOnUse" x="9" y="-7" width="53" height="49">
<path d="M9.71353 6.61458L49.4948 -6.85938L61.3646 28.1823L21.5833 41.6563L9.71353 6.61458Z" fill="white"/>
</mask>
<g mask="url(#mask12_1_588)">
<mask id="mask13_1_588" style="mask-type:luminance" maskUnits="userSpaceOnUse" x="33" y="18" width="22" height="19">
<path d="M33.4323 24.6302L50.8542 18.7292L54.8125 30.4063L37.3854 36.3073L33.4323 24.6302Z" fill="white"/>
</mask>
<g mask="url(#mask13_1_588)">
<path d="M35.0312 29.3438C36.2917 28.9167 37.4531 28.2135 38.4375 27.3177C38.7031 27.0677 38.9635 26.8073 39.2031 26.5365C40.0312 25.5937 41.3437 23.7969 41.276 22.3021C41.2708 22.1979 41.2604 22.1042 41.2448 22.0052C43.3802 21.3229 45.5208 20.6458 47.6614 19.9687C48.3177 19.7552 49.0052 19.5469 49.6823 19.6615C50.6042 19.8177 51.2656 20.526 51.6875 21.3854C51.8854 21.7969 52.0312 22.2396 52.125 22.6771C53.0677 27.099 50.2083 32.0156 45.8698 33.4323C43.2135 34.2969 40.2239 33.7708 37.8958 32.2917C37.651 32.1354 37.4114 31.9687 37.1771 31.7865C36.2448 31.0677 35.4896 30.2344 35.0312 29.3438Z" fill="#F0F0E1"/>
</g>
</g>
</g>
</g>
</g>
<mask id="mask14_1_588" style="mask-type:luminance" maskUnits="userSpaceOnUse" x="35" y="21" width="8" height="10">
<path d="M35 21.3333H43V30.6667H35V21.3333Z" fill="white"/>
</mask>
<g mask="url(#mask14_1_588)">
<mask id="mask15_1_588" style="mask-type:luminance" maskUnits="userSpaceOnUse" x="9" y="-7" width="53" height="49">
<path d="M9.71353 6.61458L49.4948 -6.85938L61.3646 28.1823L21.5833 41.6563L9.71353 6.61458Z" fill="white"/>
</mask>
<g mask="url(#mask15_1_588)">
<mask id="mask16_1_588" style="mask-type:luminance" maskUnits="userSpaceOnUse" x="9" y="-7" width="53" height="49">
<path d="M9.71353 6.61458L49.4948 -6.85938L61.3646 28.1823L21.5833 41.6563L9.71353 6.61458Z" fill="white"/>
</mask>
<g mask="url(#mask16_1_588)">
<mask id="mask17_1_588" style="mask-type:luminance" maskUnits="userSpaceOnUse" x="9" y="-7" width="53" height="49">
<path d="M9.71353 6.61458L49.4948 -6.85938L61.3646 28.1823L21.5833 41.6563L9.71353 6.61458Z" fill="white"/>
</mask>
<g mask="url(#mask17_1_588)">
<path d="M35.3542 29.8906C35.7708 29.8125 36.1719 29.7083 36.5729 29.5729C37.8281 29.1458 38.9948 28.4375 39.9739 27.5417C40.2448 27.2969 40.5 27.0365 40.7396 26.7604C41.5677 25.8177 42.8854 24.0208 42.8125 22.526C42.8125 22.4271 42.8021 22.3281 42.7812 22.2292C42.776 22.1823 42.7656 22.1406 42.75 22.0938C42.7083 21.9219 42.6406 21.75 42.5469 21.5938C42.1094 21.7292 41.6771 21.8646 41.2448 22.0052C41.2604 22.1042 41.2708 22.1979 41.276 22.3021C41.3437 23.7969 40.0312 25.5937 39.2031 26.5365C38.9635 26.8073 38.7031 27.0677 38.4375 27.3177C37.4531 28.2135 36.2917 28.9167 35.0312 29.3438C35.125 29.5313 35.2344 29.7083 35.3542 29.8906Z" fill="#E4DCB5"/>
</g>
</g>
</g>
</g>
<mask id="mask18_1_588" style="mask-type:luminance" maskUnits="userSpaceOnUse" x="37" y="1" width="20" height="22">
<path d="M37.6667 1.33334H56.3333V22.6667H37.6667V1.33334Z" fill="white"/>
</mask>
<g mask="url(#mask18_1_588)">
<mask id="mask19_1_588" style="mask-type:luminance" maskUnits="userSpaceOnUse" x="9" y="-7" width="53" height="49">
<path d="M9.71353 6.61458L49.4948 -6.85938L61.3646 28.1823L21.5833 41.6563L9.71353 6.61458Z" fill="white"/>
</mask>
<g mask="url(#mask19_1_588)">
<mask id="mask20_1_588" style="mask-type:luminance" maskUnits="userSpaceOnUse" x="9" y="-7" width="53" height="49">
<path d="M9.71353 6.61458L49.4948 -6.85938L61.3646 28.1823L21.5833 41.6563L9.71353 6.61458Z" fill="white"/>
</mask>
<g mask="url(#mask20_1_588)">
<mask id="mask21_1_588" style="mask-type:luminance" maskUnits="userSpaceOnUse" x="9" y="-7" width="53" height="49">
<path d="M9.71353 6.61458L49.4948 -6.85938L61.3646 28.1823L21.5833 41.6563L9.71353 6.61458Z" fill="white"/>
</mask>
<g mask="url(#mask21_1_588)">
<path d="M39.2448 5.18229C39.5521 4.72917 39.9166 4.3125 40.3333 3.95313C42.7864 1.83333 46.5781 1.59896 49.4583 3.0625C52.3437 4.52083 54.3021 7.45833 54.9739 10.6042C55.7864 14.4479 54.6458 18.7813 51.6875 21.3854C51.2656 20.526 50.6041 19.8177 49.6823 19.6615C49.0052 19.5469 48.3177 19.7552 47.6614 19.9688C45.5208 20.6458 43.3802 21.3229 41.2448 22.0052C41.2344 21.9583 41.2239 21.9115 41.2135 21.8698C41.3333 21.7656 41.5625 21.6406 41.8437 21.3646C42.8281 20.4063 43.7083 19.4948 43.4479 17.9896C43.0521 15.6979 40.5 14.5313 39.1146 12.6667C38.4687 11.7969 38.1198 10.7656 38.0312 9.69792C37.901 8.13542 38.3385 6.49479 39.2448 5.18229Z" fill="#F0F0E1"/>
</g>
</g>
</g>
</g>
<mask id="mask22_1_588" style="mask-type:luminance" maskUnits="userSpaceOnUse" x="40" y="17" width="13" height="6">
<path d="M40.3333 17.3333H52.3333V22.6667H40.3333V17.3333Z" fill="white"/>
</mask>
<g mask="url(#mask22_1_588)">
<mask id="mask23_1_588" style="mask-type:luminance" maskUnits="userSpaceOnUse" x="9" y="-7" width="53" height="49">
<path d="M9.71353 6.61458L49.4948 -6.85938L61.3646 28.1823L21.5833 41.6563L9.71353 6.61458Z" fill="white"/>
</mask>
<g mask="url(#mask23_1_588)">
<mask id="mask24_1_588" style="mask-type:luminance" maskUnits="userSpaceOnUse" x="9" y="-7" width="53" height="49">
<path d="M9.71353 6.61458L49.4948 -6.85938L61.3646 28.1823L21.5833 41.6563L9.71353 6.61458Z" fill="white"/>
</mask>
<g mask="url(#mask24_1_588)">
<mask id="mask25_1_588" style="mask-type:luminance" maskUnits="userSpaceOnUse" x="9" y="-7" width="53" height="49">
<path d="M9.71353 6.61458L49.4948 -6.85938L61.3646 28.1823L21.5833 41.6563L9.71353 6.61458Z" fill="white"/>
</mask>
<g mask="url(#mask25_1_588)">
<path d="M41.8437 21.3646C41.7239 21.4844 41.6146 21.5677 41.5208 21.6406C41.5 21.7396 41.4739 21.8385 41.4479 21.9375C43.5208 21.2812 45.5937 20.625 47.6614 19.9687C48.3177 19.7552 49.0052 19.5469 49.6823 19.6615C50.6042 19.8177 51.2656 20.526 51.6875 21.3854C51.901 21.1927 52.0989 20.9948 52.2969 20.7917C52.2135 20.526 52.1146 20.2656 51.9896 20.0156C51.5729 19.1615 50.9114 18.4531 49.9896 18.2969C49.3125 18.1823 48.625 18.3906 47.9687 18.599C46.2812 19.1406 44.5885 19.6719 42.8958 20.2083C42.6042 20.6146 42.2344 20.9844 41.8437 21.3646Z" fill="#C9B686"/>
</g>
</g>
</g>
</g>
<mask id="mask26_1_588" style="mask-type:luminance" maskUnits="userSpaceOnUse" x="40" y="17" width="6" height="6">
<path d="M40.3333 17.3333H45.6667V22.6667H40.3333V17.3333Z" fill="white"/>
</mask>
<g mask="url(#mask26_1_588)">
<mask id="mask27_1_588" style="mask-type:luminance" maskUnits="userSpaceOnUse" x="9" y="-7" width="53" height="49">
<path d="M9.71353 6.61458L49.4948 -6.85938L61.3646 28.1823L21.5833 41.6563L9.71353 6.61458Z" fill="white"/>
</mask>
<g mask="url(#mask27_1_588)">
<mask id="mask28_1_588" style="mask-type:luminance" maskUnits="userSpaceOnUse" x="9" y="-7" width="53" height="49">
<path d="M9.71353 6.61458L49.4948 -6.85938L61.3646 28.1823L21.5833 41.6563L9.71353 6.61458Z" fill="white"/>
</mask>
<g mask="url(#mask28_1_588)">
<mask id="mask29_1_588" style="mask-type:luminance" maskUnits="userSpaceOnUse" x="9" y="-7" width="53" height="49">
<path d="M9.71353 6.61458L49.4948 -6.85938L61.3646 28.1823L21.5833 41.6563L9.71353 6.61458Z" fill="white"/>
</mask>
<g mask="url(#mask29_1_588)">
<path d="M44.8958 20.0729C44.7135 19.0208 44.0781 18.2083 43.3073 17.4531C43.3646 17.625 43.4167 17.8021 43.4479 17.9896C43.7083 19.4948 42.8281 20.4063 41.8437 21.3646C41.5625 21.6406 41.3333 21.7656 41.2135 21.8698C41.2239 21.9115 41.2344 21.9583 41.2448 22.0052C42.4739 21.6146 43.7031 21.224 44.9271 20.8333C44.9531 20.599 44.9427 20.3437 44.8958 20.0729Z" fill="#C9B686"/>
</g>
</g>
</g>
</g>
<mask id="mask30_1_588" style="mask-type:luminance" maskUnits="userSpaceOnUse" x="37" y="1" width="18" height="14">
<path d="M37.6667 1.33334H55V14.6667H37.6667V1.33334Z" fill="white"/>
</mask>
<g mask="url(#mask30_1_588)">
<mask id="mask31_1_588" style="mask-type:luminance" maskUnits="userSpaceOnUse" x="9" y="-7" width="53" height="49">
<path d="M9.71353 6.61458L49.4948 -6.85938L61.3646 28.1823L21.5833 41.6563L9.71353 6.61458Z" fill="white"/>
</mask>
<g mask="url(#mask31_1_588)">
<mask id="mask32_1_588" style="mask-type:luminance" maskUnits="userSpaceOnUse" x="9" y="-7" width="53" height="49">
<path d="M9.71353 6.61458L49.4948 -6.85938L61.3646 28.1823L21.5833 41.6563L9.71353 6.61458Z" fill="white"/>
</mask>
<g mask="url(#mask32_1_588)">
<mask id="mask33_1_588" style="mask-type:luminance" maskUnits="userSpaceOnUse" x="9" y="-7" width="53" height="49">
<path d="M9.71353 6.61458L49.4948 -6.85938L61.3646 28.1823L21.5833 41.6563L9.71353 6.61458Z" fill="white"/>
</mask>
<g mask="url(#mask33_1_588)">
<path d="M38.0312 9.69792C38.1198 10.7656 38.4687 11.7969 39.1146 12.6667C39.3489 12.9792 39.6146 13.2708 39.8958 13.5521C39.6666 12.9896 39.526 12.3906 39.4791 11.7865C39.3489 10.224 39.7864 8.58333 40.6875 7.26563C41 6.81771 41.3646 6.40104 41.7812 6.04167C44.2344 3.92188 48.026 3.6875 50.9062 5.14583C52.0104 5.70833 52.9791 6.48437 53.7969 7.40625C52.8021 5.56771 51.3229 4.00521 49.4583 3.0625C46.5781 1.59896 42.7864 1.83333 40.3333 3.95313C39.9166 4.3125 39.5521 4.72917 39.2448 5.18229C38.3385 6.49479 37.901 8.13542 38.0312 9.69792Z" fill="#E4DCB5"/>
</g>
</g>
</g>
</g>
<mask id="mask34_1_588" style="mask-type:luminance" maskUnits="userSpaceOnUse" x="16" y="18" width="23" height="21">
<path d="M16.3333 18.6667H39V38.6667H16.3333V18.6667Z" fill="white"/>
</mask>
<g mask="url(#mask34_1_588)">
<mask id="mask35_1_588" style="mask-type:luminance" maskUnits="userSpaceOnUse" x="9" y="-7" width="53" height="49">
<path d="M9.71353 6.61458L49.4948 -6.85938L61.3646 28.1823L21.5833 41.6563L9.71353 6.61458Z" fill="white"/>
</mask>
<g mask="url(#mask35_1_588)">
<mask id="mask36_1_588" style="mask-type:luminance" maskUnits="userSpaceOnUse" x="9" y="-7" width="53" height="49">
<path d="M9.71353 6.61458L49.4948 -6.85938L61.3646 28.1823L21.5833 41.6563L9.71353 6.61458Z" fill="white"/>
</mask>
<g mask="url(#mask36_1_588)">
<mask id="mask37_1_588" style="mask-type:luminance" maskUnits="userSpaceOnUse" x="9" y="-7" width="53" height="49">
<path d="M9.71353 6.61458L49.4948 -6.85938L61.3646 28.1823L21.5833 41.6563L9.71353 6.61458Z" fill="white"/>
</mask>
<g mask="url(#mask37_1_588)">
<path d="M18.974 19.8646C19.3802 19.3854 19.875 18.9479 20.4375 18.6875C21.3125 19.6875 22.3802 20.5208 23.5677 21.1042C23.4896 21.2187 23.4219 21.3437 23.3646 21.474C22.9687 22.4115 23.2344 23.4844 23.6562 24.4063C25.3021 28.0104 29.4896 30.2865 33.4479 29.724C33.9896 29.651 34.5156 29.5208 35.0312 29.3438C35.4896 30.2344 36.2448 31.0677 37.1771 31.7865C37.4115 31.9687 37.651 32.1354 37.8958 32.2917C36.9062 34.2031 35.1198 35.8542 33.1094 36.7083C30.4583 37.8333 27.4427 37.9167 24.625 37.3281C23.3594 37.0677 22.0885 36.6563 21.0833 35.8542C19.9323 34.9375 19.2187 33.599 18.6354 32.2604C17.7604 30.2656 17.0937 28.1458 17.0312 25.9688C16.974 23.7917 17.5625 21.5417 18.974 19.8646Z" fill="#F0F0E1"/>
</g>
</g>
</g>
</g>
<mask id="mask38_1_588" style="mask-type:luminance" maskUnits="userSpaceOnUse" x="19" y="18" width="6" height="5">
<path d="M19 18.6667H24.3333V22.6667H19V18.6667Z" fill="white"/>
</mask>
<g mask="url(#mask38_1_588)">
<mask id="mask39_1_588" style="mask-type:luminance" maskUnits="userSpaceOnUse" x="9" y="-7" width="53" height="49">
<path d="M9.71355 6.61458L49.4948 -6.85938L61.3646 28.1823L21.5833 41.6563L9.71355 6.61458Z" fill="white"/>
</mask>
<g mask="url(#mask39_1_588)">
<mask id="mask40_1_588" style="mask-type:luminance" maskUnits="userSpaceOnUse" x="9" y="-7" width="53" height="49">
<path d="M9.71355 6.61458L49.4948 -6.85938L61.3646 28.1823L21.5833 41.6563L9.71355 6.61458Z" fill="white"/>
</mask>
<g mask="url(#mask40_1_588)">
<mask id="mask41_1_588" style="mask-type:luminance" maskUnits="userSpaceOnUse" x="9" y="-7" width="53" height="49">
<path d="M9.71355 6.61458L49.4948 -6.85938L61.3646 28.1823L21.5833 41.6563L9.71355 6.61458Z" fill="white"/>
</mask>
<g mask="url(#mask41_1_588)">
<path d="M19.4531 19.375C20.3073 20.3229 21.3281 21.1094 22.4635 21.6667C22.6563 21.3698 22.9167 21.125 23.2083 20.9167C22.1667 20.349 21.224 19.5885 20.4375 18.6875C20.0781 18.8542 19.75 19.099 19.4531 19.375Z" fill="#E4DCB5"/>
</g>
</g>
</g>
</g>
<mask id="mask42_1_588" style="mask-type:luminance" maskUnits="userSpaceOnUse" x="32" y="29" width="7" height="6">
<path d="M32.3333 29.3333H39V34.6667H32.3333V29.3333Z" fill="white"/>
</mask>
<g mask="url(#mask42_1_588)">
<mask id="mask43_1_588" style="mask-type:luminance" maskUnits="userSpaceOnUse" x="9" y="-7" width="53" height="49">
<path d="M9.71353 6.61458L49.4948 -6.85938L61.3646 28.1823L21.5833 41.6563L9.71353 6.61458Z" fill="white"/>
</mask>
<g mask="url(#mask43_1_588)">
<mask id="mask44_1_588" style="mask-type:luminance" maskUnits="userSpaceOnUse" x="9" y="-7" width="53" height="49">
<path d="M9.71353 6.61458L49.4948 -6.85938L61.3646 28.1823L21.5833 41.6563L9.71353 6.61458Z" fill="white"/>
</mask>
<g mask="url(#mask44_1_588)">
<mask id="mask45_1_588" style="mask-type:luminance" maskUnits="userSpaceOnUse" x="9" y="-7" width="53" height="49">
<path d="M9.71353 6.61458L49.4948 -6.85938L61.3646 28.1823L21.5833 41.6563L9.71353 6.61458Z" fill="white"/>
</mask>
<g mask="url(#mask45_1_588)">
<path d="M35.0312 29.3438C34.5156 29.5208 33.9896 29.651 33.4479 29.724C33.0781 29.776 32.7083 29.7969 32.3385 29.8021C32.8021 30.6146 33.5104 31.3802 34.375 32.0469C34.6042 32.224 34.8437 32.3906 35.0937 32.5469C35.7239 32.9479 36.4062 33.276 37.1146 33.5313C37.4114 33.1354 37.6719 32.7187 37.8958 32.2917C37.651 32.1354 37.4114 31.9687 37.1771 31.7865C36.2448 31.0677 35.4896 30.2344 35.0312 29.3438Z" fill="#C9B686"/>
</g>
</g>
</g>
</g>
<mask id="mask46_1_588" style="mask-type:luminance" maskUnits="userSpaceOnUse" x="23" y="8" width="22" height="15">
<path d="M23 8H44.3333V22.6667H23V8Z" fill="white"/>
</mask>
<g mask="url(#mask46_1_588)">
<mask id="mask47_1_588" style="mask-type:luminance" maskUnits="userSpaceOnUse" x="9" y="-7" width="53" height="49">
<path d="M9.71355 6.61458L49.4948 -6.85938L61.3646 28.1823L21.5833 41.6563L9.71355 6.61458Z" fill="white"/>
</mask>
<g mask="url(#mask47_1_588)">
<mask id="mask48_1_588" style="mask-type:luminance" maskUnits="userSpaceOnUse" x="9" y="-7" width="53" height="49">
<path d="M9.71355 6.61458L49.4948 -6.85938L61.3646 28.1823L21.5833 41.6563L9.71355 6.61458Z" fill="white"/>
</mask>
<g mask="url(#mask48_1_588)">
<mask id="mask49_1_588" style="mask-type:luminance" maskUnits="userSpaceOnUse" x="9" y="-7" width="53" height="49">
<path d="M9.71355 6.61458L49.4948 -6.85938L61.3646 28.1823L21.5833 41.6563L9.71355 6.61458Z" fill="white"/>
</mask>
<g mask="url(#mask49_1_588)">
<path d="M24.0156 14.125C24.3177 13.026 25.2708 12.1302 26.3906 11.8802C27.5052 11.6302 28.7448 12.0469 29.4792 12.9115C29.3698 11.2552 30.5312 9.66667 32.0573 8.98438C33.4531 8.35938 35.0573 8.41667 36.4896 8.8698C36.9323 9.01042 37.474 9.3698 38.0312 9.69792C38.1198 10.7656 38.4687 11.7969 39.1146 12.6667C40.5 14.5313 43.0521 15.6979 43.4479 17.9896C43.7083 19.4948 42.8281 20.4063 41.8437 21.3646C41.5625 21.6406 41.3333 21.7656 41.2135 21.8698C41.1667 21.6927 41.099 21.526 41.0052 21.3646C39.9844 19.6563 36.1146 19.2448 34.3646 19.0156C31.7552 18.6771 29.0833 18.8073 26.526 19.4271C26.2708 19.4896 26.0156 19.5573 25.7604 19.6406C24.8229 17.7917 23.4844 16.0521 24.0156 14.125Z" fill="#D28500"/>
</g>
</g>
</g>
</g>
<mask id="mask50_1_588" style="mask-type:luminance" maskUnits="userSpaceOnUse" x="24" y="8" width="21" height="15">
<path d="M24.3333 8H44.3333V22.6667H24.3333V8Z" fill="white"/>
</mask>
<g mask="url(#mask50_1_588)">
<mask id="mask51_1_588" style="mask-type:luminance" maskUnits="userSpaceOnUse" x="9" y="-7" width="53" height="49">
<path d="M9.71353 6.61458L49.4948 -6.85938L61.3646 28.1823L21.5833 41.6563L9.71353 6.61458Z" fill="white"/>
</mask>
<g mask="url(#mask51_1_588)">
<mask id="mask52_1_588" style="mask-type:luminance" maskUnits="userSpaceOnUse" x="9" y="-7" width="53" height="49">
<path d="M9.71353 6.61458L49.4948 -6.85938L61.3646 28.1823L21.5833 41.6563L9.71353 6.61458Z" fill="white"/>
</mask>
<g mask="url(#mask52_1_588)">
<mask id="mask53_1_588" style="mask-type:luminance" maskUnits="userSpaceOnUse" x="9" y="-7" width="53" height="49">
<path d="M9.71353 6.61458L49.4948 -6.85938L61.3646 28.1823L21.5833 41.6563L9.71353 6.61458Z" fill="white"/>
</mask>
<g mask="url(#mask53_1_588)">
<path d="M38.375 11.2865C38.1875 10.776 38.0729 10.2448 38.0312 9.69792C37.7031 9.50521 37.3802 9.30209 37.0781 9.13542C37.2604 9.69271 37.5208 10.2188 37.875 10.6927C38.0312 10.901 38.1979 11.099 38.375 11.2865ZM25.7604 19.6406C26.0156 19.5573 26.2708 19.4896 26.526 19.4271C29.0833 18.8073 31.7552 18.6771 34.3646 19.0156C36.1146 19.2448 39.9844 19.6563 41.0052 21.3646C41.0989 21.526 41.1667 21.6927 41.2135 21.8698C41.3333 21.7656 41.5625 21.6406 41.8437 21.3646C42.8281 20.4063 43.7083 19.4948 43.4479 17.9896C43.2864 17.0573 42.7708 16.3125 42.1198 15.6302C42.1562 15.7552 42.1875 15.8854 42.2083 16.0156C42.4687 17.526 41.5885 18.4375 40.6094 19.3906C40.3229 19.6667 40.0937 19.7917 39.9739 19.8958C39.9323 19.7188 39.8594 19.5521 39.7656 19.3906C38.7448 17.6823 34.8802 17.2708 33.125 17.0417C30.5208 16.7031 27.8437 16.8333 25.2864 17.4531C25.0833 17.5 24.8802 17.5625 24.6719 17.625C25.0156 18.2917 25.4167 18.9583 25.7604 19.6406Z" fill="#BA5B00"/>
</g>
</g>
</g>
</g>
<mask id="mask54_1_588" style="mask-type:luminance" maskUnits="userSpaceOnUse" x="17" y="0" width="24" height="22">
<path d="M17.6667 0H40.3333V21.3333H17.6667V0Z" fill="white"/>
</mask>
<g mask="url(#mask54_1_588)">
<mask id="mask55_1_588" style="mask-type:luminance" maskUnits="userSpaceOnUse" x="9" y="-7" width="53" height="49">
<path d="M9.71353 6.61458L49.4948 -6.85938L61.3646 28.1823L21.5833 41.6563L9.71353 6.61458Z" fill="white"/>
</mask>
<g mask="url(#mask55_1_588)">
<mask id="mask56_1_588" style="mask-type:luminance" maskUnits="userSpaceOnUse" x="9" y="-7" width="53" height="49">
<path d="M9.71353 6.61458L49.4948 -6.85938L61.3646 28.1823L21.5833 41.6563L9.71353 6.61458Z" fill="white"/>
</mask>
<g mask="url(#mask56_1_588)">
<mask id="mask57_1_588" style="mask-type:luminance" maskUnits="userSpaceOnUse" x="9" y="-7" width="53" height="49">
<path d="M9.71353 6.61458L49.4948 -6.85938L61.3646 28.1823L21.5833 41.6563L9.71353 6.61458Z" fill="white"/>
</mask>
<g mask="url(#mask57_1_588)">
<path d="M24.2604 2.32813C28.25 0.333333 33.2604 0.770833 37 3.15625C37.4844 3.46354 38.3958 4.23958 39.2448 5.18229C38.3385 6.49479 37.901 8.13542 38.0312 9.69792C37.4739 9.36979 36.9323 9.01042 36.4896 8.86979C35.0573 8.41667 33.4531 8.35938 32.0573 8.98438C30.5312 9.66667 29.3698 11.2552 29.4792 12.9115C28.7448 12.0469 27.5052 11.6302 26.3906 11.8802C25.2708 12.1302 24.3177 13.026 24.0156 14.125C23.4844 16.0521 24.8229 17.7917 25.7604 19.6406C25.4479 19.7448 25.1354 19.8698 24.8437 20.0156C24.3229 20.2865 23.8698 20.6354 23.5677 21.1042C22.3802 20.5208 21.3125 19.6875 20.4375 18.6875C19.0937 17.151 18.1979 15.2187 18.0052 13.1823C17.5781 8.78125 20.276 4.31771 24.2604 2.32813Z" fill="#F0F0E1"/>
</g>
</g>
</g>
</g>
<mask id="mask58_1_588" style="mask-type:luminance" maskUnits="userSpaceOnUse" x="20" y="17" width="17" height="14">
<path d="M20.3333 17.3333H36.3333V30.6667H20.3333V17.3333Z" fill="white"/>
</mask>
<g mask="url(#mask58_1_588)">
<mask id="mask59_1_588" style="mask-type:luminance" maskUnits="userSpaceOnUse" x="9" y="-7" width="53" height="49">
<path d="M9.71353 6.61458L49.4948 -6.85938L61.3646 28.1823L21.5833 41.6563L9.71353 6.61458Z" fill="white"/>
</mask>
<g mask="url(#mask59_1_588)">
<mask id="mask60_1_588" style="mask-type:luminance" maskUnits="userSpaceOnUse" x="9" y="-7" width="53" height="49">
<path d="M9.71353 6.61458L49.4948 -6.85938L61.3646 28.1823L21.5833 41.6563L9.71353 6.61458Z" fill="white"/>
</mask>
<g mask="url(#mask60_1_588)">
<mask id="mask61_1_588" style="mask-type:luminance" maskUnits="userSpaceOnUse" x="9" y="-7" width="53" height="49">
<path d="M9.71353 6.61458L49.4948 -6.85938L61.3646 28.1823L21.5833 41.6563L9.71353 6.61458Z" fill="white"/>
</mask>
<g mask="url(#mask61_1_588)">
<path d="M21.7031 24.5469C23.4635 28.3958 27.9271 30.8177 32.151 30.224C32.7239 30.1406 33.2917 30.0052 33.8385 29.8177C34.1979 29.6979 34.5469 29.5521 34.8906 29.3906C34.4219 29.5417 33.9375 29.6563 33.4479 29.724C29.4896 30.2865 25.3021 28.0104 23.6562 24.4063C23.2344 23.4844 22.9687 22.4115 23.3646 21.474C23.4219 21.3438 23.4896 21.2188 23.5677 21.1042C23.8698 20.6354 24.3229 20.2865 24.8437 20.0156C25.1354 19.8698 25.4479 19.7448 25.7604 19.6406C26.0156 19.5573 26.2708 19.4896 26.526 19.4271C29.0833 18.8073 31.7552 18.6771 34.3646 19.0156C34.8073 19.0729 35.3802 19.1406 36.0156 19.2396C34.9167 19.0156 33.8489 18.8906 33.125 18.7969C30.3437 18.4375 27.4948 18.5781 24.7604 19.2344C24.4948 19.3021 24.2187 19.375 23.9479 19.4636C23.6146 19.5781 23.2812 19.7083 22.9739 19.8698C22.4167 20.1511 21.9323 20.5261 21.6094 21.0261C21.526 21.1511 21.4531 21.2813 21.3958 21.4219C20.9739 22.4167 21.2552 23.5677 21.7031 24.5469Z" fill="#E4DCB5"/>
</g>
</g>
</g>
</g>
<mask id="mask62_1_588" style="mask-type:luminance" maskUnits="userSpaceOnUse" x="23" y="18" width="19" height="13">
<path d="M23 18.6667H41.6667V30.6667H23V18.6667Z" fill="white"/>
</mask>
<g mask="url(#mask62_1_588)">
<mask id="mask63_1_588" style="mask-type:luminance" maskUnits="userSpaceOnUse" x="9" y="-7" width="53" height="49">
<path d="M9.71355 6.61458L49.4948 -6.85938L61.3646 28.1823L21.5833 41.6563L9.71355 6.61458Z" fill="white"/>
</mask>
<g mask="url(#mask63_1_588)">
<mask id="mask64_1_588" style="mask-type:luminance" maskUnits="userSpaceOnUse" x="9" y="-7" width="53" height="49">
<path d="M9.71355 6.61458L49.4948 -6.85938L61.3646 28.1823L21.5833 41.6563L9.71355 6.61458Z" fill="white"/>
</mask>
<g mask="url(#mask64_1_588)">
<mask id="mask65_1_588" style="mask-type:luminance" maskUnits="userSpaceOnUse" x="9" y="-7" width="53" height="49">
<path d="M9.71355 6.61458L49.4948 -6.85938L61.3646 28.1823L21.5833 41.6563L9.71355 6.61458Z" fill="white"/>
</mask>
<g mask="url(#mask65_1_588)">
<path d="M23.3646 21.474C23.4219 21.3438 23.4896 21.2188 23.5677 21.1042C23.8698 20.6354 24.3229 20.2865 24.8438 20.0156C25.1354 19.8698 25.4479 19.7448 25.7604 19.6406C26.0156 19.5573 26.2708 19.4896 26.5261 19.4271C29.0833 18.8073 31.7552 18.6771 34.3646 19.0156C36.1146 19.2448 39.9844 19.6563 41.0052 21.3646C41.099 21.526 41.1667 21.6927 41.2136 21.8698C41.224 21.9115 41.2344 21.9583 41.2448 22.0052C41.2604 22.1042 41.2708 22.1979 41.2761 22.3021C41.3438 23.7969 40.0313 25.5938 39.2031 26.5365C38.9636 26.8073 38.7031 27.0677 38.4375 27.3177C37.4531 28.2135 36.2917 28.9167 35.0313 29.3438C34.5156 29.5208 33.9896 29.651 33.4479 29.724C29.4896 30.2865 25.3021 28.0104 23.6563 24.4063C23.2344 23.4844 22.9688 22.4115 23.3646 21.474Z" fill="#F0F0E1"/>
</g>
</g>
</g>
</g>
<mask id="mask66_1_588" style="mask-type:luminance" maskUnits="userSpaceOnUse" x="132" y="18" width="13" height="13">
<path d="M132.333 18.6667H144.333V30.6667H132.333V18.6667Z" fill="white"/>
</mask>
<g mask="url(#mask66_1_588)">
<mask id="mask67_1_588" style="mask-type:luminance" maskUnits="userSpaceOnUse" x="123" y="4" width="39" height="38">
<path d="M134.526 4.63542L161.682 17.3802L150.208 41.8229L123.052 29.0781L134.526 4.63542Z" fill="white"/>
</mask>
<g mask="url(#mask67_1_588)">
<mask id="mask68_1_588" style="mask-type:luminance" maskUnits="userSpaceOnUse" x="123" y="4" width="39" height="38">
<path d="M134.526 4.63542L161.682 17.3802L150.208 41.8229L123.052 29.0781L134.526 4.63542Z" fill="white"/>
</mask>
<g mask="url(#mask68_1_588)">
<mask id="mask69_1_588" style="mask-type:luminance" maskUnits="userSpaceOnUse" x="123" y="4" width="39" height="38">
<path d="M134.526 4.63542L161.682 17.3802L150.208 41.8229L123.052 29.0781L134.526 4.63542Z" fill="white"/>
</mask>
<g mask="url(#mask69_1_588)">
<path d="M134.078 19.3021C134.172 19.2604 134.271 19.2292 134.37 19.2083C134.76 19.1094 135.167 19.1511 135.568 19.2708C135.792 19.3386 136.01 19.4271 136.224 19.5313C136.396 19.6146 136.568 19.7031 136.724 19.7969C138.349 20.75 139.786 22.0156 140.953 23.4948C141.74 24.4896 143.516 26.6406 143.182 28.0521C143.151 28.1875 143.104 28.3073 143.036 28.4219C143.021 28.4531 143.005 28.4844 142.984 28.5104C142.943 28.5729 142.901 28.6302 142.854 28.6823C142.141 29.5104 140.562 29.8021 139.667 29.8854C139.406 29.9115 139.146 29.9167 138.88 29.9167C137.927 29.9011 136.979 29.6875 136.12 29.2865C135.766 29.125 135.432 28.9271 135.115 28.6979C132.802 27.0156 131.797 23.724 132.755 20.9948C133 20.3021 133.406 19.599 134.078 19.3021Z" fill="#F0F0E1"/>
</g>
</g>
</g>
</g>
<mask id="mask70_1_588" style="mask-type:luminance" maskUnits="userSpaceOnUse" x="135" y="28" width="15" height="11">
<path d="M135 28H149.667V38.6667H135V28Z" fill="white"/>
</mask>
<g mask="url(#mask70_1_588)">
<mask id="mask71_1_588" style="mask-type:luminance" maskUnits="userSpaceOnUse" x="123" y="4" width="39" height="38">
<path d="M134.526 4.63542L161.682 17.3802L150.208 41.8229L123.052 29.0781L134.526 4.63542Z" fill="white"/>
</mask>
<g mask="url(#mask71_1_588)">
<mask id="mask72_1_588" style="mask-type:luminance" maskUnits="userSpaceOnUse" x="123" y="4" width="39" height="38">
<path d="M134.526 4.63542L161.682 17.3802L150.208 41.8229L123.052 29.0781L134.526 4.63542Z" fill="white"/>
</mask>
<g mask="url(#mask72_1_588)">
<mask id="mask73_1_588" style="mask-type:luminance" maskUnits="userSpaceOnUse" x="123" y="4" width="39" height="38">
<path d="M134.526 4.63542L161.682 17.3802L150.208 41.8229L123.052 29.0781L134.526 4.63542Z" fill="white"/>
</mask>
<g mask="url(#mask73_1_588)">
<mask id="mask74_1_588" style="mask-type:luminance" maskUnits="userSpaceOnUse" x="133" y="26" width="17" height="14">
<path d="M137.661 26L149.557 31.5833L145.734 39.724L133.839 34.1406L137.661 26Z" fill="white"/>
</mask>
<g mask="url(#mask74_1_588)">
<path d="M136.12 29.2865C136.979 29.6875 137.927 29.901 138.88 29.9167C139.146 29.9167 139.406 29.9115 139.667 29.8854C140.563 29.8021 142.141 29.5104 142.854 28.6823C142.901 28.6302 142.943 28.5729 142.984 28.5104C144.422 29.2188 145.859 29.9323 147.297 30.6406C147.74 30.8594 148.198 31.0885 148.49 31.4896C148.88 32.0313 148.865 32.7344 148.651 33.3958C148.552 33.7135 148.401 34.026 148.229 34.3021C146.5 37.1042 142.568 38.276 139.635 36.8594C137.833 35.9896 136.568 34.2188 136.115 32.2708C136.063 32.0677 136.026 31.8594 135.995 31.651C135.875 30.8021 135.911 29.9844 136.12 29.2865Z" fill="#F0F0E1"/>
</g>
</g>
</g>
</g>
</g>
<mask id="mask75_1_588" style="mask-type:luminance" maskUnits="userSpaceOnUse" x="135" y="28" width="10" height="4">
<path d="M135 28H144.333V32H135V28Z" fill="white"/>
</mask>
<g mask="url(#mask75_1_588)">
<mask id="mask76_1_588" style="mask-type:luminance" maskUnits="userSpaceOnUse" x="123" y="4" width="39" height="38">
<path d="M134.526 4.63542L161.682 17.3802L150.208 41.8229L123.052 29.0781L134.526 4.63542Z" fill="white"/>
</mask>
<g mask="url(#mask76_1_588)">
<mask id="mask77_1_588" style="mask-type:luminance" maskUnits="userSpaceOnUse" x="123" y="4" width="39" height="38">
<path d="M134.526 4.63542L161.682 17.3802L150.208 41.8229L123.052 29.0781L134.526 4.63542Z" fill="white"/>
</mask>
<g mask="url(#mask77_1_588)">
<mask id="mask78_1_588" style="mask-type:luminance" maskUnits="userSpaceOnUse" x="123" y="4" width="39" height="38">
<path d="M134.526 4.63542L161.682 17.3802L150.208 41.8229L123.052 29.0781L134.526 4.63542Z" fill="white"/>
</mask>
<g mask="url(#mask78_1_588)">
<path d="M136.01 29.7344C136.26 29.901 136.526 30.0469 136.797 30.1719C137.656 30.5781 138.604 30.7865 139.557 30.8021C139.823 30.8073 140.083 30.7969 140.344 30.7708C141.24 30.6875 142.818 30.3958 143.531 29.5729C143.578 29.5156 143.62 29.4583 143.661 29.401C143.682 29.3698 143.698 29.3438 143.714 29.3125C143.776 29.1979 143.828 29.0729 143.859 28.9427C143.568 28.7969 143.276 28.6563 142.984 28.5104C142.943 28.5729 142.901 28.6302 142.854 28.6823C142.141 29.5104 140.563 29.8021 139.667 29.8854C139.406 29.9115 139.146 29.9167 138.88 29.9167C137.927 29.901 136.979 29.6875 136.12 29.2865C136.073 29.4323 136.042 29.5833 136.01 29.7344Z" fill="#E4DCB5"/>
</g>
</g>
</g>
</g>
<mask id="mask79_1_588" style="mask-type:luminance" maskUnits="userSpaceOnUse" x="141" y="17" width="17" height="18">
<path d="M141.667 17.3333H157.667V34.6667H141.667V17.3333Z" fill="white"/>
</mask>
<g mask="url(#mask79_1_588)">
<mask id="mask80_1_588" style="mask-type:luminance" maskUnits="userSpaceOnUse" x="123" y="4" width="39" height="38">
<path d="M134.526 4.63542L161.682 17.3802L150.208 41.8229L123.052 29.0781L134.526 4.63542Z" fill="white"/>
</mask>
<g mask="url(#mask80_1_588)">
<mask id="mask81_1_588" style="mask-type:luminance" maskUnits="userSpaceOnUse" x="123" y="4" width="39" height="38">
<path d="M134.526 4.63542L161.682 17.3802L150.208 41.8229L123.052 29.0781L134.526 4.63542Z" fill="white"/>
</mask>
<g mask="url(#mask81_1_588)">
<mask id="mask82_1_588" style="mask-type:luminance" maskUnits="userSpaceOnUse" x="123" y="4" width="39" height="38">
<path d="M134.526 4.63542L161.682 17.3802L150.208 41.8229L123.052 29.0781L134.526 4.63542Z" fill="white"/>
</mask>
<g mask="url(#mask82_1_588)">
<path d="M150.391 18.625C150.776 18.5417 151.167 18.5052 151.563 18.5208C153.885 18.625 155.943 20.3958 156.693 22.6042C157.438 24.8177 156.974 27.349 155.74 29.3438C154.234 31.7813 151.474 33.5 148.651 33.3958C148.865 32.7344 148.88 32.0313 148.49 31.4896C148.198 31.0885 147.74 30.8594 147.297 30.6406C145.859 29.9323 144.422 29.2188 142.984 28.5104C143.005 28.4844 143.021 28.4531 143.036 28.4219C143.151 28.4271 143.328 28.4792 143.615 28.474C144.599 28.4583 145.505 28.4167 146.13 27.4896C147.073 26.0833 146.349 24.1927 146.573 22.5156C146.677 21.7344 147.016 21.0104 147.505 20.4063C148.219 19.5156 149.266 18.8698 150.391 18.625Z" fill="#F0F0E1"/>
</g>
</g>
</g>
</g>
<mask id="mask83_1_588" style="mask-type:luminance" maskUnits="userSpaceOnUse" x="143" y="28" width="7" height="7">
<path d="M143 28H149.667V34.6667H143V28Z" fill="white"/>
</mask>
<g mask="url(#mask83_1_588)">
<mask id="mask84_1_588" style="mask-type:luminance" maskUnits="userSpaceOnUse" x="123" y="4" width="39" height="38">
<path d="M134.526 4.63542L161.682 17.3802L150.208 41.8229L123.052 29.0781L134.526 4.63542Z" fill="white"/>
</mask>
<g mask="url(#mask84_1_588)">
<mask id="mask85_1_588" style="mask-type:luminance" maskUnits="userSpaceOnUse" x="123" y="4" width="39" height="38">
<path d="M134.526 4.63542L161.682 17.3802L150.208 41.8229L123.052 29.0781L134.526 4.63542Z" fill="white"/>
</mask>
<g mask="url(#mask85_1_588)">
<mask id="mask86_1_588" style="mask-type:luminance" maskUnits="userSpaceOnUse" x="123" y="4" width="39" height="38">
<path d="M134.526 4.63542L161.682 17.3802L150.208 41.8229L123.052 29.0781L134.526 4.63542Z" fill="white"/>
</mask>
<g mask="url(#mask86_1_588)">
<path d="M143.615 28.474C143.495 28.474 143.396 28.4687 143.307 28.4583C143.25 28.5 143.188 28.5417 143.12 28.5781C144.516 29.2656 145.906 29.9531 147.297 30.6406C147.74 30.8594 148.198 31.0885 148.49 31.4896C148.88 32.0313 148.865 32.7344 148.651 33.3958C148.854 33.4063 149.057 33.401 149.26 33.3906C149.354 33.2083 149.432 33.0208 149.495 32.8281C149.708 32.1667 149.724 31.4635 149.328 30.9219C149.042 30.5208 148.583 30.2865 148.141 30.0729C147.005 29.5104 145.87 28.9479 144.734 28.3906C144.38 28.4583 144 28.4687 143.615 28.474Z" fill="#C9B686"/>
</g>
</g>
</g>
</g>
<mask id="mask87_1_588" style="mask-type:luminance" maskUnits="userSpaceOnUse" x="141" y="26" width="6" height="5">
<path d="M141.667 26.6667H147V30.6667H141.667V26.6667Z" fill="white"/>
</mask>
<g mask="url(#mask87_1_588)">
<mask id="mask88_1_588" style="mask-type:luminance" maskUnits="userSpaceOnUse" x="123" y="4" width="39" height="38">
<path d="M134.526 4.63542L161.682 17.3802L150.208 41.8229L123.052 29.0781L134.526 4.63542Z" fill="white"/>
</mask>
<g mask="url(#mask88_1_588)">
<mask id="mask89_1_588" style="mask-type:luminance" maskUnits="userSpaceOnUse" x="123" y="4" width="39" height="38">
<path d="M134.526 4.63542L161.682 17.3802L150.208 41.8229L123.052 29.0781L134.526 4.63542Z" fill="white"/>
</mask>
<g mask="url(#mask89_1_588)">
<mask id="mask90_1_588" style="mask-type:luminance" maskUnits="userSpaceOnUse" x="123" y="4" width="39" height="38">
<path d="M134.526 4.63542L161.682 17.3802L150.208 41.8229L123.052 29.0781L134.526 4.63542Z" fill="white"/>
</mask>
<g mask="url(#mask90_1_588)">
<path d="M145.823 29.3125C146.26 28.6667 146.339 27.9219 146.323 27.1354C146.266 27.2552 146.203 27.375 146.13 27.4896C145.505 28.4167 144.599 28.4583 143.615 28.474C143.328 28.4792 143.151 28.4271 143.036 28.4219C143.021 28.4531 143.005 28.4844 142.984 28.5104C143.813 28.9167 144.635 29.3281 145.464 29.7344C145.589 29.6198 145.714 29.4792 145.823 29.3125Z" fill="#C9B686"/>
</g>
</g>
</g>
</g>
<mask id="mask91_1_588" style="mask-type:luminance" maskUnits="userSpaceOnUse" x="145" y="17" width="13" height="11">
<path d="M145.667 17.3333H157.667V28H145.667V17.3333Z" fill="white"/>
</mask>
<g mask="url(#mask91_1_588)">
<mask id="mask92_1_588" style="mask-type:luminance" maskUnits="userSpaceOnUse" x="123" y="4" width="39" height="38">
<path d="M134.526 4.63542L161.682 17.3802L150.208 41.8229L123.052 29.0781L134.526 4.63542Z" fill="white"/>
</mask>
<g mask="url(#mask92_1_588)">
<mask id="mask93_1_588" style="mask-type:luminance" maskUnits="userSpaceOnUse" x="123" y="4" width="39" height="38">
<path d="M134.526 4.63542L161.682 17.3802L150.208 41.8229L123.052 29.0781L134.526 4.63542Z" fill="white"/>
</mask>
<g mask="url(#mask93_1_588)">
<mask id="mask94_1_588" style="mask-type:luminance" maskUnits="userSpaceOnUse" x="123" y="4" width="39" height="38">
<path d="M134.526 4.63542L161.682 17.3802L150.208 41.8229L123.052 29.0781L134.526 4.63542Z" fill="white"/>
</mask>
<g mask="url(#mask94_1_588)">
<path d="M147.505 20.4063C147.016 21.0104 146.677 21.7344 146.573 22.5156C146.536 22.7969 146.526 23.0833 146.526 23.3698C146.693 22.9583 146.922 22.5781 147.198 22.2292C147.917 21.3385 148.964 20.6927 150.083 20.4479C150.469 20.3646 150.865 20.3281 151.26 20.3438C153.578 20.4479 155.641 22.2188 156.391 24.4323C156.677 25.2813 156.781 26.1719 156.74 27.0677C157.151 25.599 157.177 24.0365 156.693 22.6042C155.943 20.3958 153.885 18.625 151.563 18.5208C151.167 18.5052 150.776 18.5417 150.391 18.625C149.266 18.8698 148.219 19.5156 147.505 20.4063Z" fill="#E4DCB5"/>
</g>
</g>
</g>
</g>
<mask id="mask95_1_588" style="mask-type:luminance" maskUnits="userSpaceOnUse" x="125" y="16" width="12" height="18">
<path d="M125.667 16H136.333V33.3333H125.667V16Z" fill="white"/>
</mask>
<g mask="url(#mask95_1_588)">
<mask id="mask96_1_588" style="mask-type:luminance" maskUnits="userSpaceOnUse" x="123" y="4" width="39" height="38">
<path d="M134.526 4.63542L161.682 17.3802L150.208 41.8229L123.052 29.0781L134.526 4.63542Z" fill="white"/>
</mask>
<g mask="url(#mask96_1_588)">
<mask id="mask97_1_588" style="mask-type:luminance" maskUnits="userSpaceOnUse" x="123" y="4" width="39" height="38">
<path d="M134.526 4.63542L161.682 17.3802L150.208 41.8229L123.052 29.0781L134.526 4.63542Z" fill="white"/>
</mask>
<g mask="url(#mask97_1_588)">
<mask id="mask98_1_588" style="mask-type:luminance" maskUnits="userSpaceOnUse" x="123" y="4" width="39" height="38">
<path d="M134.526 4.63542L161.682 17.3802L150.208 41.8229L123.052 29.0781L134.526 4.63542Z" fill="white"/>
</mask>
<g mask="url(#mask98_1_588)">
<path d="M132.635 16.2604C133.078 16.2083 133.557 16.224 133.974 16.3698C133.922 17.3333 134.052 18.3073 134.37 19.2083C134.271 19.2292 134.172 19.2604 134.078 19.3021C133.406 19.599 133 20.3021 132.755 20.9948C131.797 23.724 132.802 27.0156 135.115 28.6979C135.432 28.9271 135.766 29.125 136.12 29.2865C135.911 29.9844 135.875 30.8021 135.995 31.651C136.026 31.8594 136.062 32.0677 136.115 32.2708C134.646 32.7917 132.901 32.7708 131.443 32.2187C129.521 31.4896 127.927 30.026 126.781 28.3073C126.26 27.5365 125.818 26.6823 125.703 25.7552C125.568 24.7031 125.875 23.6406 126.245 22.6406C126.797 21.151 127.516 19.6979 128.578 18.5156C129.635 17.3333 131.068 16.4375 132.635 16.2604Z" fill="#F0F0E1"/>
</g>
</g>
</g>
</g>
<mask id="mask99_1_588" style="mask-type:luminance" maskUnits="userSpaceOnUse" x="132" y="16" width="3" height="4">
<path d="M132.333 16H135V20H132.333V16Z" fill="white"/>
</mask>
<g mask="url(#mask99_1_588)">
<mask id="mask100_1_588" style="mask-type:luminance" maskUnits="userSpaceOnUse" x="123" y="4" width="39" height="38">
<path d="M134.526 4.63542L161.682 17.3802L150.208 41.8229L123.052 29.0781L134.526 4.63542Z" fill="white"/>
</mask>
<g mask="url(#mask100_1_588)">
<mask id="mask101_1_588" style="mask-type:luminance" maskUnits="userSpaceOnUse" x="123" y="4" width="39" height="38">
<path d="M134.526 4.63542L161.682 17.3802L150.208 41.8229L123.052 29.0781L134.526 4.63542Z" fill="white"/>
</mask>
<g mask="url(#mask101_1_588)">
<mask id="mask102_1_588" style="mask-type:luminance" maskUnits="userSpaceOnUse" x="123" y="4" width="39" height="38">
<path d="M134.526 4.63542L161.682 17.3802L150.208 41.8229L123.052 29.0781L134.526 4.63542Z" fill="white"/>
</mask>
<g mask="url(#mask102_1_588)">
<path d="M133.125 16.2396C133.089 17.1667 133.219 18.0938 133.521 18.9531C133.766 18.8958 134.021 18.8906 134.276 18.9271C134.026 18.1094 133.927 17.2344 133.974 16.3698C133.708 16.2761 133.417 16.2396 133.125 16.2396Z" fill="#E4DCB5"/>
</g>
</g>
</g>
</g>
<mask id="mask103_1_588" style="mask-type:luminance" maskUnits="userSpaceOnUse" x="133" y="28" width="4" height="6">
<path d="M133.667 28H136.333V33.3333H133.667V28Z" fill="white"/>
</mask>
<g mask="url(#mask103_1_588)">
<mask id="mask104_1_588" style="mask-type:luminance" maskUnits="userSpaceOnUse" x="123" y="4" width="39" height="38">
<path d="M134.526 4.63542L161.682 17.3802L150.208 41.8229L123.052 29.0781L134.526 4.63542Z" fill="white"/>
</mask>
<g mask="url(#mask104_1_588)">
<mask id="mask105_1_588" style="mask-type:luminance" maskUnits="userSpaceOnUse" x="123" y="4" width="39" height="38">
<path d="M134.526 4.63542L161.682 17.3802L150.208 41.8229L123.052 29.0781L134.526 4.63542Z" fill="white"/>
</mask>
<g mask="url(#mask105_1_588)">
<mask id="mask106_1_588" style="mask-type:luminance" maskUnits="userSpaceOnUse" x="123" y="4" width="39" height="38">
<path d="M134.526 4.63542L161.682 17.3802L150.208 41.8229L123.052 29.0781L134.526 4.63542Z" fill="white"/>
</mask>
<g mask="url(#mask106_1_588)">
<path d="M136.12 29.2865C135.766 29.125 135.432 28.9271 135.115 28.6979C134.901 28.5417 134.703 28.3646 134.51 28.1823C134.339 28.8438 134.318 29.6042 134.427 30.3854C134.458 30.5938 134.495 30.8021 134.547 31.0104C134.667 31.5365 134.854 32.0521 135.089 32.5365C135.443 32.474 135.781 32.3906 136.115 32.2708C136.063 32.0677 136.026 31.8594 135.995 31.651C135.875 30.8021 135.911 29.9844 136.12 29.2865Z" fill="#C9B686"/>
</g>
</g>
</g>
</g>
<mask id="mask107_1_588" style="mask-type:luminance" maskUnits="userSpaceOnUse" x="135" y="14" width="14" height="16">
<path d="M135 14.6667H148.333V29.3333H135V14.6667Z" fill="white"/>
</mask>
<g mask="url(#mask107_1_588)">
<mask id="mask108_1_588" style="mask-type:luminance" maskUnits="userSpaceOnUse" x="123" y="4" width="39" height="38">
<path d="M134.526 4.63542L161.682 17.3802L150.208 41.8229L123.052 29.0781L134.526 4.63542Z" fill="white"/>
</mask>
<g mask="url(#mask108_1_588)">
<mask id="mask109_1_588" style="mask-type:luminance" maskUnits="userSpaceOnUse" x="123" y="4" width="39" height="38">
<path d="M134.526 4.63542L161.682 17.3802L150.208 41.8229L123.052 29.0781L134.526 4.63542Z" fill="white"/>
</mask>
<g mask="url(#mask109_1_588)">
<mask id="mask110_1_588" style="mask-type:luminance" maskUnits="userSpaceOnUse" x="123" y="4" width="39" height="38">
<path d="M134.526 4.63542L161.682 17.3802L150.208 41.8229L123.052 29.0781L134.526 4.63542Z" fill="white"/>
</mask>
<g mask="url(#mask110_1_588)">
<path d="M138.094 15.7448C138.802 15.3177 139.74 15.3177 140.437 15.7448C141.135 16.1719 141.562 17.0104 141.505 17.8333C142.281 16.901 143.672 16.6406 144.797 17.0417C145.823 17.4115 146.62 18.2448 147.125 19.1979C147.286 19.4948 147.38 19.9531 147.505 20.4063C147.016 21.0104 146.677 21.7344 146.573 22.5156C146.349 24.1927 147.073 26.0833 146.13 27.4896C145.505 28.4167 144.599 28.4583 143.615 28.474C143.328 28.4792 143.151 28.4271 143.036 28.4219C143.104 28.3073 143.151 28.1875 143.182 28.0521C143.516 26.6406 141.74 24.4896 140.953 23.4948C139.786 22.0156 138.349 20.75 136.724 19.7969C136.568 19.7031 136.396 19.6146 136.224 19.5313C136.672 18.0833 136.859 16.5 138.094 15.7448Z" fill="#D28500"/>
</g>
</g>
</g>
</g>
<mask id="mask111_1_588" style="mask-type:luminance" maskUnits="userSpaceOnUse" x="135" y="17" width="14" height="13">
<path d="M135 17.3333H148.333V29.3333H135V17.3333Z" fill="white"/>
</mask>
<g mask="url(#mask111_1_588)">
<mask id="mask112_1_588" style="mask-type:luminance" maskUnits="userSpaceOnUse" x="123" y="4" width="39" height="38">
<path d="M134.526 4.63542L161.682 17.3802L150.208 41.8229L123.052 29.0781L134.526 4.63542Z" fill="white"/>
</mask>
<g mask="url(#mask112_1_588)">
<mask id="mask113_1_588" style="mask-type:luminance" maskUnits="userSpaceOnUse" x="123" y="4" width="39" height="38">
<path d="M134.526 4.63542L161.682 17.3802L150.208 41.8229L123.052 29.0781L134.526 4.63542Z" fill="white"/>
</mask>
<g mask="url(#mask113_1_588)">
<mask id="mask114_1_588" style="mask-type:luminance" maskUnits="userSpaceOnUse" x="123" y="4" width="39" height="38">
<path d="M134.526 4.63542L161.682 17.3802L150.208 41.8229L123.052 29.0781L134.526 4.63542Z" fill="white"/>
</mask>
<g mask="url(#mask114_1_588)">
<path d="M146.885 21.4167C147.042 21.0573 147.255 20.7135 147.505 20.4063C147.432 20.1406 147.37 19.8698 147.297 19.6354C147.109 20.0156 146.984 20.4271 146.927 20.8542C146.901 21.0417 146.891 21.2292 146.885 21.4167ZM136.229 19.5313C136.396 19.6146 136.568 19.7031 136.724 19.7969C138.349 20.75 139.786 22.0156 140.953 23.4948C141.74 24.4896 143.516 26.6406 143.182 28.0521C143.151 28.1875 143.104 28.3073 143.036 28.4219C143.151 28.4271 143.328 28.4792 143.615 28.474C144.599 28.4583 145.505 28.4167 146.13 27.4896C146.51 26.9167 146.62 26.2656 146.625 25.5833C146.583 25.6667 146.536 25.75 146.479 25.8281C145.859 26.7552 144.948 26.7969 143.969 26.8125C143.682 26.8177 143.505 26.7656 143.391 26.7656C143.453 26.6458 143.505 26.526 143.536 26.3906C143.87 24.9792 142.094 22.8333 141.307 21.8333C140.141 20.3542 138.703 19.0885 137.078 18.1354C136.948 18.0625 136.813 17.9896 136.677 17.9219C136.521 18.4427 136.391 18.9948 136.229 19.5313Z" fill="#BA5B00"/>
</g>
</g>
</g>
</g>
<mask id="mask115_1_588" style="mask-type:luminance" maskUnits="userSpaceOnUse" x="133" y="8" width="18" height="14">
<path d="M133.667 8H151V21.3333H133.667V8Z" fill="white"/>
</mask>
<g mask="url(#mask115_1_588)">
<mask id="mask116_1_588" style="mask-type:luminance" maskUnits="userSpaceOnUse" x="123" y="4" width="39" height="38">
<path d="M134.526 4.63542L161.682 17.3802L150.208 41.8229L123.052 29.0781L134.526 4.63542Z" fill="white"/>
</mask>
<g mask="url(#mask116_1_588)">
<mask id="mask117_1_588" style="mask-type:luminance" maskUnits="userSpaceOnUse" x="123" y="4" width="39" height="38">
<path d="M134.526 4.63542L161.682 17.3802L150.208 41.8229L123.052 29.0781L134.526 4.63542Z" fill="white"/>
</mask>
<g mask="url(#mask117_1_588)">
<mask id="mask118_1_588" style="mask-type:luminance" maskUnits="userSpaceOnUse" x="123" y="4" width="39" height="38">
<path d="M134.526 4.63542L161.682 17.3802L150.208 41.8229L123.052 29.0781L134.526 4.63542Z" fill="white"/>
</mask>
<g mask="url(#mask118_1_588)">
<path d="M144.135 9.63542C147.177 10.5729 149.531 13.3073 150.255 16.4323C150.349 16.8385 150.427 17.7031 150.391 18.625C149.266 18.8698 148.219 19.5156 147.505 20.4063C147.38 19.9531 147.286 19.4948 147.125 19.1979C146.62 18.2448 145.823 17.4115 144.797 17.0417C143.672 16.6406 142.281 16.901 141.505 17.8333C141.562 17.0104 141.135 16.1719 140.437 15.7448C139.74 15.3177 138.802 15.3177 138.094 15.7448C136.859 16.5 136.672 18.0833 136.224 19.5313C136.01 19.4271 135.792 19.3385 135.568 19.2708C135.167 19.151 134.76 19.1094 134.37 19.2083C134.052 18.3073 133.922 17.3333 133.974 16.3698C134.052 14.8854 134.562 13.4167 135.484 12.2448C137.469 9.70833 141.089 8.69792 144.135 9.63542Z" fill="#F0F0E1"/>
</g>
</g>
</g>
</g>
<mask id="mask119_1_588" style="mask-type:luminance" maskUnits="userSpaceOnUse" x="131" y="17" width="12" height="13">
<path d="M131 17.3333H143V29.3333H131V17.3333Z" fill="white"/>
</mask>
<g mask="url(#mask119_1_588)">
<mask id="mask120_1_588" style="mask-type:luminance" maskUnits="userSpaceOnUse" x="123" y="4" width="39" height="38">
<path d="M134.526 4.63542L161.682 17.3802L150.208 41.8229L123.052 29.0781L134.526 4.63542Z" fill="white"/>
</mask>
<g mask="url(#mask120_1_588)">
<mask id="mask121_1_588" style="mask-type:luminance" maskUnits="userSpaceOnUse" x="123" y="4" width="39" height="38">
<path d="M134.526 4.63542L161.682 17.3802L150.208 41.8229L123.052 29.0781L134.526 4.63542Z" fill="white"/>
</mask>
<g mask="url(#mask121_1_588)">
<mask id="mask122_1_588" style="mask-type:luminance" maskUnits="userSpaceOnUse" x="123" y="4" width="39" height="38">
<path d="M134.526 4.63542L161.682 17.3802L150.208 41.8229L123.052 29.0781L134.526 4.63542Z" fill="white"/>
</mask>
<g mask="url(#mask122_1_588)">
<path d="M131.682 20.0938C130.656 23.0052 131.734 26.5156 134.203 28.3125C134.536 28.5573 134.896 28.7656 135.271 28.9427C135.516 29.0573 135.766 29.1563 136.026 29.2396C135.708 29.0833 135.401 28.9063 135.115 28.6979C132.802 27.0156 131.797 23.724 132.755 20.9948C133 20.3021 133.406 19.599 134.078 19.3021C134.172 19.2604 134.271 19.2292 134.37 19.2083C134.76 19.1094 135.167 19.151 135.568 19.2708C135.792 19.3385 136.01 19.4271 136.229 19.5313C136.396 19.6146 136.568 19.7031 136.724 19.7969C138.349 20.75 139.786 22.0156 140.953 23.4948C141.151 23.7448 141.411 24.0729 141.687 24.4375C141.234 23.776 140.75 23.1771 140.427 22.7656C139.182 21.1823 137.651 19.8333 135.917 18.8177C135.745 18.7188 135.568 18.6198 135.385 18.5313C135.156 18.4219 134.922 18.3281 134.682 18.2552C134.255 18.1302 133.818 18.0833 133.401 18.1875C133.297 18.2135 133.193 18.2448 133.094 18.2917C132.375 18.6042 131.948 19.3542 131.682 20.0938Z" fill="#E4DCB5"/>
</g>
</g>
</g>
</g>
<mask id="mask123_1_588" style="mask-type:luminance" maskUnits="userSpaceOnUse" x="132" y="18" width="13" height="13">
<path d="M132.333 18.6667H144.333V30.6667H132.333V18.6667Z" fill="white"/>
</mask>
<g mask="url(#mask123_1_588)">
<mask id="mask124_1_588" style="mask-type:luminance" maskUnits="userSpaceOnUse" x="123" y="4" width="39" height="38">
<path d="M134.526 4.63542L161.682 17.3802L150.208 41.8229L123.052 29.0781L134.526 4.63542Z" fill="white"/>
</mask>
<g mask="url(#mask124_1_588)">
<mask id="mask125_1_588" style="mask-type:luminance" maskUnits="userSpaceOnUse" x="123" y="4" width="39" height="38">
<path d="M134.526 4.63542L161.682 17.3802L150.208 41.8229L123.052 29.0781L134.526 4.63542Z" fill="white"/>
</mask>
<g mask="url(#mask125_1_588)">
<mask id="mask126_1_588" style="mask-type:luminance" maskUnits="userSpaceOnUse" x="123" y="4" width="39" height="38">
<path d="M134.526 4.63542L161.682 17.3802L150.208 41.8229L123.052 29.0781L134.526 4.63542Z" fill="white"/>
</mask>
<g mask="url(#mask126_1_588)">
<path d="M134.078 19.3021C134.172 19.2604 134.271 19.2292 134.37 19.2083C134.76 19.1094 135.167 19.1511 135.568 19.2708C135.792 19.3386 136.01 19.4271 136.224 19.5313C136.396 19.6146 136.568 19.7031 136.724 19.7969C138.349 20.75 139.786 22.0156 140.953 23.4948C141.74 24.4896 143.516 26.6406 143.182 28.0521C143.151 28.1875 143.104 28.3073 143.036 28.4219C143.021 28.4531 143.005 28.4844 142.984 28.5104C142.943 28.5729 142.901 28.6302 142.854 28.6823C142.141 29.5104 140.562 29.8021 139.667 29.8854C139.406 29.9115 139.146 29.9167 138.88 29.9167C137.927 29.9011 136.979 29.6875 136.12 29.2865C135.766 29.125 135.432 28.9271 135.115 28.6979C132.802 27.0156 131.797 23.724 132.755 20.9948C133 20.3021 133.406 19.599 134.078 19.3021Z" fill="#F0F0E1"/>
</g>
</g>
</g>
</g>
<path d="M158.766 116.927C158.88 117.021 159.214 117.083 159.771 117.12C160.328 117.151 160.766 116.958 161.083 116.536C161.406 116.115 161.594 115.406 161.656 114.406L161.854 111.068C161.917 110.01 161.839 109.25 161.62 108.776C161.396 108.307 161 108.057 160.427 108.021C159.854 107.99 159.464 108.026 159.25 108.13C159.271 108.276 159.271 108.526 159.25 108.88L158.766 116.927ZM158.672 136.87L158.271 143.594C156.917 144.604 155.042 145.38 152.656 145.927C150.271 146.479 147.802 146.677 145.25 146.521C141.615 146.302 138.682 145.422 136.453 143.875C133.911 142.104 132.729 139.693 132.917 136.646L135.422 94.8698C135.479 93.9323 136.172 93.0313 137.505 92.1719C138.833 91.3125 140.651 90.5677 142.953 89.9375C147.891 88.5886 153.464 88.099 159.682 88.474C168.271 88.9896 174.99 91.5365 179.833 96.125C184.677 100.708 186.88 106.615 186.448 113.844C186.01 121.068 183.375 126.552 178.531 130.292C173.875 133.839 167.62 135.375 159.76 134.901C157.974 134.797 156.073 134.469 154.062 133.922C152.052 133.375 150.703 132.917 150.016 132.552C149.771 132.776 149.635 133.089 149.609 133.5C149.521 134.995 152.542 136.12 158.672 136.87Z" stroke="#F0F0E1" stroke-width="13.9855"/>
<path d="M158.779 116.935C158.888 117.018 159.222 117.081 159.779 117.122C160.347 117.154 160.784 116.956 161.092 116.539C161.409 116.122 161.602 115.414 161.675 114.414L161.862 111.06C161.93 110.008 161.852 109.247 161.633 108.789C161.409 108.32 161.013 108.07 160.446 108.039C159.873 107.997 159.477 108.029 159.258 108.122C159.284 108.279 159.284 108.529 159.258 108.872L158.779 116.935ZM158.696 136.872L158.279 143.581C156.93 144.596 155.055 145.372 152.654 145.914C150.263 146.466 147.8 146.669 145.258 146.518C141.618 146.294 138.685 145.414 136.467 143.872C133.925 142.096 132.743 139.685 132.925 136.643L135.425 94.8514C135.477 93.9244 136.175 93.0285 137.508 92.1639C138.842 91.3046 140.654 90.5598 142.946 89.9348C147.888 88.591 153.472 88.1014 159.696 88.4764C168.279 88.9921 174.987 91.5389 179.821 96.1223C184.664 100.706 186.868 106.617 186.425 113.851C185.993 121.075 183.362 126.56 178.529 130.31C173.888 133.851 167.638 135.388 159.779 134.914C157.987 134.805 156.076 134.471 154.05 133.914C152.034 133.362 150.696 132.904 150.029 132.539C149.779 132.763 149.638 133.081 149.612 133.497C149.513 134.987 152.539 136.112 158.696 136.872Z" fill="#FF1919"/>
<path d="M220.76 116.401C221.052 116.385 221.313 116.302 221.542 116.141L221.354 112.141C223.281 110.693 226.026 109.464 229.578 108.443C233.13 107.422 236.609 106.828 240.016 106.667C241.641 108.177 243.052 110.484 244.245 113.589C245.438 116.693 246.12 119.521 246.302 122.073C245.771 123.271 244.839 124.578 243.51 125.995C242.177 127.412 240.557 128.74 238.646 129.974C233.917 133.078 228.396 134.781 222.089 135.083C213.052 135.51 205.813 133.219 200.37 128.214C194.75 123.162 191.719 115.932 191.276 106.531C190.828 97.125 193.411 89.6042 199.026 83.9584C201.495 81.4271 204.417 79.474 207.786 78.0938C211.161 76.7136 214.745 75.9375 218.526 75.7552C225.922 75.4063 232.063 76.9063 236.953 80.2657C241.849 83.6198 244.417 87.9219 244.667 93.1719C244.854 97.1355 243.776 100.115 241.432 102.125C239.083 104.13 235.828 105.234 231.661 105.432C229.375 105.542 227.047 105.083 224.677 104.063C222.302 103.047 220.875 102.047 220.385 101.073C220.276 98.6667 220.229 96.7709 220.25 95.3855C220.193 95.3594 220.089 95.3542 219.943 95.3594L219.63 95.375C219.193 95.3959 218.854 95.5365 218.615 95.7969C218.38 96.0573 218.182 96.5886 218.031 97.3907C217.875 98.1928 217.885 100.349 218.052 103.87C218.448 112.292 219.354 116.469 220.76 116.401Z" stroke="#F0F0E1" stroke-width="13.9855"/>
<path d="M220.752 116.393C221.043 116.383 221.304 116.3 221.543 116.143L221.356 112.123C223.283 110.68 226.028 109.451 229.585 108.435C233.137 107.409 236.611 106.81 240.002 106.643C241.637 108.175 243.054 110.492 244.252 113.602C245.444 116.701 246.132 119.529 246.314 122.081C245.773 123.279 244.835 124.581 243.502 125.998C242.179 127.404 240.564 128.727 238.648 129.977C233.924 133.076 228.403 134.779 222.085 135.081C213.054 135.508 205.825 133.221 200.398 128.206C194.773 123.164 191.736 115.945 191.293 106.539C190.851 97.1225 193.418 89.5965 199.002 83.9559C201.486 81.4298 204.418 79.4767 207.793 78.1017C211.168 76.7163 214.741 75.9298 218.523 75.7475C225.924 75.3882 232.069 76.8882 236.96 80.2475C241.845 83.6121 244.418 87.9142 244.668 93.1642C244.861 97.1225 243.778 100.112 241.418 102.123C239.069 104.138 235.819 105.242 231.668 105.435C229.377 105.55 227.043 105.096 224.668 104.081C222.304 103.055 220.877 102.05 220.377 101.06C220.262 98.659 220.215 96.7684 220.231 95.3934C220.174 95.3517 220.069 95.3413 219.918 95.3517H219.627C219.179 95.3829 218.84 95.5288 218.606 95.7892C218.366 96.0392 218.174 96.5757 218.023 97.3934C217.866 98.2007 217.877 100.362 218.043 103.873C218.444 112.289 219.345 116.466 220.752 116.393Z" fill="#FF1919"/>
<path d="M283.104 111.078C283.354 108.156 283.401 106.13 283.229 105.01C283.062 103.891 282.63 103.302 281.927 103.24C281.49 103.203 281.078 103.313 280.703 103.578C280.714 104.109 280.745 104.818 280.781 105.703C280.823 106.594 280.719 108.469 280.469 111.339L280.224 114.193C280.052 116.182 279.88 117.625 279.714 118.526C279.547 119.422 279.406 120.193 279.292 120.833C279.234 121.177 279.172 121.526 279.115 121.875C279.437 122.198 279.823 122.38 280.26 122.417C280.964 122.479 281.49 121.974 281.849 120.896C282.208 119.823 282.516 117.823 282.771 114.896L283.104 111.078ZM278.594 142.615C273.385 142.161 268.703 140.672 264.542 138.141C260.385 135.615 257.167 132.021 254.891 127.354C252.615 122.693 251.766 117.036 252.339 110.396C253.177 100.771 256.729 93.5052 262.99 88.5938C268.557 84.2708 275.391 82.4635 283.495 83.1667C292.302 83.9323 299.036 87.2656 303.693 93.1719C308.354 99.0729 310.297 106.474 309.526 115.365C308.667 125.255 305.26 132.568 299.307 137.297C293.896 141.573 286.99 143.344 278.594 142.615Z" stroke="#F0F0E1" stroke-width="13.9855"/>
<path d="M283.103 111.078C283.363 108.151 283.405 106.13 283.228 105.015C283.045 103.89 282.613 103.302 281.936 103.244C281.488 103.203 281.087 103.317 280.728 103.578C280.728 104.109 280.749 104.817 280.79 105.703C280.832 106.593 280.728 108.468 280.478 111.328L280.228 114.203C280.061 116.177 279.894 117.614 279.728 118.515C279.561 119.422 279.42 120.192 279.311 120.828C279.238 121.177 279.176 121.526 279.124 121.869C279.441 122.192 279.821 122.369 280.269 122.411C280.946 122.468 281.467 121.963 281.832 120.89C282.207 119.823 282.519 117.828 282.769 114.911L283.103 111.078ZM278.603 142.619C273.379 142.172 268.686 140.687 264.519 138.161C260.363 135.619 257.155 132.015 254.894 127.349C252.629 122.682 251.78 117.031 252.353 110.39C253.186 100.765 256.728 93.4945 262.978 88.5778C268.545 84.2601 275.384 82.4528 283.499 83.1611C292.301 83.9267 299.03 87.2653 303.686 93.182C308.353 99.0882 310.295 106.484 309.519 115.369C308.655 125.26 305.254 132.567 299.311 137.286C293.894 141.578 286.988 143.354 278.603 142.619Z" fill="#FF1919"/>
<path d="M337.797 102.865C337.922 102.937 338.266 102.953 338.823 102.901C339.375 102.849 339.781 102.594 340.031 102.125C340.286 101.661 340.365 100.932 340.271 99.9375L340.13 98.3594C340.031 97.3073 339.839 96.5625 339.547 96.1302C339.26 95.7031 338.828 95.5156 338.255 95.5677C337.687 95.6198 337.307 95.7135 337.109 95.8489C337.151 95.9896 337.193 96.2396 337.224 96.5885L337.797 102.865ZM361.354 110.786L369.656 117.854C369.547 122.464 368.432 126.104 366.302 128.776C364.172 131.453 361.031 132.979 356.88 133.359C353.75 133.646 350.964 133.151 348.516 131.87C345.391 130.271 342.906 127.49 341.068 123.531L339.094 119.375C337.865 119.458 336.297 119.443 334.401 119.323C334.187 119.578 334.099 119.911 334.141 120.318C334.208 121.109 335.437 121.469 337.823 121.396L340.901 127.484L341.245 131.214C338.099 133.891 333.891 135.469 328.63 135.953C324.854 136.302 321.771 135.802 319.38 134.458C316.984 133.115 315.651 130.969 315.38 128.016L311.552 86.3385C311.432 85.0521 312.505 83.6927 314.76 82.2604C317.021 80.8333 320.031 79.5677 323.792 78.4687C327.552 77.3698 331.349 76.6458 335.182 76.2969C343.958 75.4896 350.979 76.6562 356.25 79.8021C361.802 83.0937 364.896 88.1666 365.521 95.0104C365.88 98.9271 365.089 102.385 363.135 105.38C361.182 108.375 358.578 110.568 355.312 111.958C355.401 112.896 356.005 113.312 357.13 113.208C358.255 113.104 359.661 112.297 361.354 110.786Z" stroke="#F0F0E1" stroke-width="13.9855"/>
<path d="M337.801 102.85C337.926 102.933 338.264 102.954 338.821 102.913C339.373 102.861 339.78 102.6 340.03 102.142C340.28 101.673 340.363 100.933 340.28 99.9335L340.134 98.3501C340.035 97.2981 339.842 96.5585 339.551 96.1418C339.259 95.7147 338.827 95.5272 338.259 95.5793C337.702 95.6366 337.327 95.7251 337.134 95.8501C337.176 96.0064 337.207 96.2564 337.238 96.6001L337.801 102.85ZM361.363 110.788L369.676 117.85C369.561 122.465 368.436 126.111 366.301 128.788C364.16 131.454 361.014 132.986 356.863 133.371C353.738 133.652 350.957 133.142 348.53 131.85C345.389 130.267 342.894 127.496 341.051 123.538L339.092 119.392C337.853 119.465 336.29 119.433 334.405 119.308C334.196 119.574 334.103 119.913 334.134 120.329C334.217 121.121 335.436 121.475 337.801 121.392L340.905 127.475L341.259 131.225C338.103 133.892 333.889 135.47 328.613 135.954C324.832 136.303 321.748 135.808 319.363 134.475C316.988 133.131 315.66 130.975 315.384 128.017L311.571 86.3293C311.446 85.0376 312.509 83.6835 314.759 82.2668C317.009 80.8397 320.014 79.5741 323.78 78.4751C327.54 77.3814 331.342 76.6574 335.176 76.3085C343.952 75.4908 350.978 76.6574 356.259 79.8085C361.811 83.0897 364.905 88.1522 365.53 94.996C365.889 98.9126 365.092 102.371 363.134 105.371C361.176 108.371 358.561 110.569 355.301 111.954C355.394 112.902 356.009 113.324 357.134 113.225C358.269 113.116 359.681 112.303 361.363 110.788Z" fill="#FF1919"/>
<path d="M371.948 129.521L376.802 85.6458C376.969 84.1302 378.328 83 380.875 82.2656C383.422 81.5261 386.349 81.3386 389.646 81.7031C391.516 81.9115 393.245 82.3333 394.849 82.9688C396.448 83.6042 397.646 84.3177 398.443 85.1146C399.474 86.7656 400.396 88.4323 401.214 90.1198C402.031 91.8073 403.859 95.7292 406.693 101.896C407.016 101.932 407.318 101.859 407.604 101.688C407.885 101.51 408.052 101.214 408.099 100.786C408.146 100.365 407.875 99.5 407.281 98.1927L403.453 89.5261L403.719 87.1198C405.344 86.0573 407.255 85.3073 409.464 84.8698C411.667 84.4375 413.906 84.3438 416.182 84.5938C419.891 85.0052 422.807 86.0104 424.937 87.6042C427.417 89.5 428.469 92.1615 428.089 95.5729L423.505 137.042C423.224 139.552 421.828 141.24 419.307 142.115C417.151 142.911 414.365 143.12 410.953 142.745C409.052 142.531 407.229 142.125 405.479 141.516C403.729 140.911 402.38 140.229 401.427 139.474C399.651 136.589 397.922 133.385 396.245 129.859L392.599 121.922C391.74 121.943 391.266 122.349 391.182 123.141C391.125 123.635 391.443 124.63 392.135 126.125L396.63 135.573L396.375 137.896C392.745 139.708 388.807 140.38 384.562 139.911C380.312 139.443 377.073 138.302 374.833 136.49C372.599 134.677 371.635 132.354 371.948 129.521Z" stroke="#F0F0E1" stroke-width="13.9855"/>
<path d="M371.964 129.508L376.818 85.633C376.984 84.1226 378.339 82.9976 380.88 82.258C383.422 81.5236 386.344 81.3414 389.651 81.7164C391.511 81.9143 393.24 82.3309 394.839 82.9664C396.448 83.5914 397.651 84.3101 398.443 85.1122C399.469 86.7528 400.391 88.4195 401.214 90.1122C402.031 91.8101 403.859 95.732 406.693 101.883C407.011 101.914 407.307 101.841 407.589 101.675C407.88 101.508 408.047 101.211 408.089 100.779C408.141 100.352 407.87 99.4976 407.276 98.2164L403.464 89.508L403.734 87.1122C405.359 86.0445 407.266 85.2945 409.464 84.8622C411.656 84.4351 413.891 84.3414 416.172 84.5914C419.891 85.008 422.823 86.008 424.964 87.5914C427.422 89.4976 428.464 92.1539 428.089 95.5705L423.505 137.029C423.224 139.539 421.823 141.237 419.297 142.112C417.141 142.914 414.359 143.133 410.943 142.758C409.052 142.55 407.234 142.138 405.484 141.529C403.734 140.914 402.386 140.227 401.443 139.466C399.662 136.591 397.932 133.393 396.255 129.862L392.609 121.904C391.745 121.946 391.276 122.362 391.193 123.154C391.136 123.654 391.453 124.643 392.151 126.112L396.63 135.55L396.359 137.883C392.745 139.701 388.818 140.373 384.568 139.904C380.318 139.446 377.073 138.305 374.839 136.487C372.599 134.669 371.641 132.341 371.964 129.508Z" fill="#FF1919"/>
</svg>
